/* XPM */
static char * blue_small_xpm[] = {
"20 20 304 2",
"       c #000000",
". 	c None",
"+ 	c #00060E",
"@ 	c #00060D",
"# 	c #00040D",
"$ 	c #00050E",
"% 	c #000710",
"& 	c #00030B",
"* 	c #000001",
"= 	c #000811",
"- 	c #000F1E",
"; 	c #002351",
"> 	c #204C77",
", 	c #34679F",
"' 	c #4A5C6C",
") 	c #4E73A1",
"! 	c #3B628C",
"~ 	c #002658",
"{ 	c #001C50",
"] 	c #001F51",
"^ 	c #000B19",
"/ 	c #000003",
"( 	c #020910",
"_ 	c #00153C",
": 	c #002554",
"< 	c #3E6AAE",
"[ 	c #3680DF",
"} 	c #418FF4",
"| 	c #539CFF",
"1 	c #4982DC",
"2 	c #608AD5",
"3 	c #6889BC",
"4 	c #7D9CB5",
"5 	c #001E52",
"6 	c #002D58",
"7 	c #001024",
"8 	c #00040C",
"9 	c #000005",
"0 	c #02080F",
"a 	c #00032C",
"b 	c #406296",
"c 	c #4A92E2",
"d 	c #4AB6FE",
"e 	c #279FFF",
"f 	c #1582FB",
"g 	c #0E6DE8",
"h 	c #0E57D0",
"i 	c #1850C5",
"j 	c #1A50C2",
"k 	c #4E72CF",
"l 	c #BDDDF6",
"m 	c #00235B",
"n 	c #002B56",
"o 	c #001D3D",
"p 	c #00050A",
"q 	c #000010",
"r 	c #00060C",
"s 	c #001D4B",
"t 	c #859FC2",
"u 	c #98D2FF",
"v 	c #7ADEFD",
"w 	c #68DAFF",
"x 	c #49C1FE",
"y 	c #2294FF",
"z 	c #1476F0",
"A 	c #155CD3",
"B 	c #0048BE",
"C 	c #0041B4",
"D 	c #0342B5",
"E 	c #0020AB",
"F 	c #A7D0FE",
"G 	c #0E3670",
"H 	c #002A58",
"I 	c #000B1A",
"J 	c #001745",
"K 	c #2D588F",
"L 	c #A8DDFF",
"M 	c #BAEEFE",
"N 	c #B9FBFF",
"O 	c #B6FFFE",
"P 	c #A2ECFF",
"Q 	c #4AA6FF",
"R 	c #217BF0",
"S 	c #195ED5",
"T 	c #0E4CC0",
"U 	c #003FB3",
"V 	c #003CB1",
"W 	c #0847B7",
"X 	c #0020AF",
"Y 	c #B6D7F5",
"Z 	c #00154B",
"` 	c #002A5A",
" .	c #022D57",
"..	c #295CA4",
"+.	c #427EF3",
"@.	c #5998F8",
"#.	c #93CFFF",
"$.	c #D1ECFF",
"%.	c #B5EBFE",
"&.	c #7EBCFF",
"*.	c #4685F1",
"=.	c #2964D5",
"-.	c #174EC2",
";.	c #1342B7",
">.	c #033EB2",
",.	c #003BB0",
"'.	c #0B3EB3",
").	c #6A99DB",
"!.	c #2F5184",
"~.	c #032E60",
"{.	c #00070F",
"].	c #124575",
"^.	c #407ACE",
"/.	c #1048C3",
"(.	c #2864D8",
"_.	c #3977E9",
":.	c #6099F7",
"<.	c #86B7FF",
"[.	c #98BFFF",
"}.	c #6E99FC",
"|.	c #4976E6",
"1.	c #3260D2",
"2.	c #1E4CC1",
"3.	c #1445B9",
"4.	c #013CB0",
"5.	c #0A3EBA",
"6.	c #568CD8",
"7.	c #406AA4",
"8.	c #003169",
"9.	c #144B7B",
"0.	c #3E75CD",
"a.	c #0035B0",
"b.	c #0545BB",
"c.	c #2056CB",
"d.	c #3D70E0",
"e.	c #5583F1",
"f.	c #5A87F1",
"g.	c #507BE9",
"h.	c #557CEC",
"i.	c #4A73E4",
"j.	c #2C59CC",
"k.	c #1947BB",
"l.	c #023CB0",
"m.	c #0A3CB8",
"n.	c #5690DB",
"o.	c #3F74B2",
"p.	c #06306A",
"q.	c #020912",
"r.	c #154E7E",
"s.	c #4F7ED2",
"t.	c #0033B0",
"u.	c #003EB4",
"v.	c #0346BA",
"w.	c #3561D3",
"x.	c #3968D9",
"y.	c #345FD2",
"z.	c #2B58CB",
"A.	c #375FD3",
"B.	c #557AED",
"C.	c #486EE2",
"D.	c #2852C7",
"E.	c #043FB3",
"F.	c #0037AF",
"G.	c #508BD7",
"H.	c #3E7ABC",
"I.	c #072F6B",
"J.	c #030913",
"K.	c #1F5481",
"L.	c #6E97E2",
"M.	c #0C37B7",
"N.	c #083FB4",
"O.	c #033FB3",
"P.	c #1246BA",
"Q.	c #1248BB",
"R.	c #0C44B8",
"S.	c #1443B8",
"T.	c #234FC3",
"U.	c #3C66D8",
"V.	c #4F74E7",
"W.	c #4D71E3",
"X.	c #2A52C7",
"Y.	c #103DB6",
"Z.	c #4F8BD6",
"`.	c #3C77B8",
" +	c #092F6A",
".+	c #030912",
"++	c #21507C",
"@+	c #90B3ED",
"#+	c #1C4AC6",
"$+	c #103AB6",
"%+	c #073EB2",
"&+	c #003AAF",
"*+	c #1B49BD",
"=+	c #2A58CC",
"-+	c #315ACE",
";+	c #3C61DB",
">+	c #466BE0",
",+	c #3862CE",
"'+	c #5990DC",
")+	c #3D6FAA",
"!+	c #073069",
"~+	c #010911",
"{+	c #012A5B",
"]+	c #7694BE",
"^+	c #99BDFD",
"/+	c #355FC7",
"(+	c #0533B2",
"_+	c #0036AE",
":+	c #003DB0",
"<+	c #003BB1",
"[+	c #003EB3",
"}+	c #2149BC",
"|+	c #254FC7",
"1+	c #274DC8",
"2+	c #4F76DA",
"3+	c #89AAF0",
"4+	c #B0D4FB",
"5+	c #B5DAF2",
"6+	c #0A3679",
"7+	c #043166",
"8+	c #002653",
"9+	c #002256",
"0+	c #A4C1DC",
"a+	c #A3C9FC",
"b+	c #6995E0",
"c+	c #1844B4",
"d+	c #0028A9",
"e+	c #002EAB",
"f+	c #1A51BD",
"g+	c #5A90DB",
"h+	c #7DAEEA",
"i+	c #ADD9FF",
"j+	c #ACCEED",
"k+	c #54749D",
"l+	c #002A64",
"m+	c #012E5E",
"n+	c #00060F",
"o+	c #022F5D",
"p+	c #000A48",
"q+	c #A4C2DE",
"r+	c #A7CEFD",
"s+	c #85B2EE",
"t+	c #5383D2",
"u+	c #1942B4",
"v+	c #183DB0",
"w+	c #4E8AD3",
"x+	c #5090D7",
"y+	c #5DA0E3",
"z+	c #66A1E3",
"A+	c #416DAD",
"B+	c #2C5794",
"C+	c #0D3670",
"D+	c #043060",
"E+	c #000D1C",
"F+	c #00000B",
"G+	c #000914",
"H+	c #113765",
"I+	c #000648",
"J+	c #6C8DB4",
"K+	c #A6C9EC",
"L+	c #96C4F6",
"M+	c #83B8EF",
"N+	c #70ACE8",
"O+	c #65A4E5",
"P+	c #4E88CA",
"Q+	c #376AAB",
"R+	c #194385",
"S+	c #184182",
"T+	c #103671",
"U+	c #0A2F5E",
"V+	c #000E1C",
"W+	c #00050C",
"X+	c #0A2F57",
"Y+	c #00215A",
"Z+	c #022D6B",
"`+	c #5C83B5",
" @	c #7CA9DE",
".@	c #6593CD",
"+@	c #5885C3",
"@@	c #103878",
"#@	c #174080",
"$@	c #153D7A",
"%@	c #0D386C",
"&@	c #0A3261",
"*@	c #000E1D",
"=@	c #00070E",
"-@	c #002953",
";@	c #053365",
">@	c #002462",
",@	c #21477D",
"'@	c #1C4078",
")@	c #072F6C",
"!@	c #163D75",
"~@	c #0E376E",
"{@	c #09346A",
"]@	c #002F5E",
"^@	c #000F1D",
"/@	c #00080F",
"(@	c #01060C",
"_@	c #011A37",
":@	c #022755",
"<@	c #032756",
"[@	c #032651",
"}@	c #011433",
". . . . . . + @ # . $ $ % @ & . . . . . ",
". . . . = - ; > , ' ) ! ~ { ] ^ . . . . ",
". . . ( _ : < [ } | 1 2 3 4 5 6 7 8 . . ",
". . 0 a b c d e f g h i j k l m n o p . ",
". r s t u v w x y z A B C D E F G H I . ",
". J K L M N O P Q R S T U V W X Y Z ` $ ",
".  ...+.@.#.$.%.&.*.=.-.;.>.,.'.).!.~.{.",
". ].^./.(._.:.<.[.}.|.1.2.3.4.5.6.7.8.= ",
". 9.0.a.b.c.d.e.f.g.h.i.j.k.l.m.n.o.p.q.",
". r.s.t.u.v.w.x.y.z.A.B.C.D.E.F.G.H.I.J.",
". K.L.M.N.O.P.Q.R.S.T.U.V.W.X.Y.Z.`. +.+",
". ++@+#+$+%+&+V ,.>.*+=+-+;+>+,+'+)+!+~+",
". {+]+^+/+(+_+:+<+[+}+|+1+2+3+4+5+6+7+{.",
". 8+9+0+a+b+c+d+&+V e+f+g+h+i+j+k+l+m+n+",
". @ o+p+q+r+s+t+u+v+w+x+y+z+A+B+C+D+E+. ",
". . G+H+I+J+K+L+M+N+O+P+Q+R+S+T+U+V+. . ",
". . W+7 X+Y+Z+`+ @.@+@@@#@$@%@&@*@. . . ",
". . . . =@-@;@>@,@'@)@!@~@{@]@^@. . . . ",
". . . . . r /@(@_@:@<@[@}@p =@. . . . . ",
". . . . . . . . . . . . . . . . . . . . "};
