/* XPM */
static char * broken_wall_animation_xpm[] = {
"100 20 958 2",
"  	c #000000",
". 	c #0F0F0F",
"+ 	c None",
"@ 	c #2A2C29",
"# 	c #434242",
"$ 	c #4B4A4B",
"% 	c #585959",
"& 	c #606060",
"* 	c #676767",
"= 	c #656565",
"- 	c #656564",
"; 	c #5E5E5B",
"> 	c #373635",
", 	c #2C2D2D",
"' 	c #4D4D4F",
") 	c #474545",
"! 	c #434040",
"~ 	c #2B2B2A",
"{ 	c #13130F",
"] 	c #0F0F10",
"^ 	c #101010",
"/ 	c #101110",
"( 	c #252B24",
"_ 	c #424141",
": 	c #4D4D4E",
"< 	c #444142",
"[ 	c #2B2B29",
"} 	c #1A1A16",
"| 	c #191919",
"1 	c #020202",
"2 	c #040504",
"3 	c #2C312B",
"4 	c #5A5A5A",
"5 	c #505050",
"6 	c #444444",
"7 	c #5C5C5D",
"8 	c #666666",
"9 	c #373735",
"0 	c #2B2C2C",
"a 	c #4C4B4C",
"b 	c #454242",
"c 	c #181818",
"d 	c #111111",
"e 	c #1D1D18",
"f 	c #20211F",
"g 	c #282526",
"h 	c #424142",
"i 	c #585858",
"j 	c #484848",
"k 	c #454446",
"l 	c #1B1B1B",
"m 	c #282929",
"n 	c #515051",
"o 	c #383838",
"p 	c #050505",
"q 	c #060606",
"r 	c #121212",
"s 	c #070804",
"t 	c #1D1B1B",
"u 	c #333233",
"v 	c #030303",
"w 	c #0C0C0C",
"x 	c #3A3A38",
"y 	c #2F2F2E",
"z 	c #484849",
"A 	c #4D4A4A",
"B 	c #232323",
"C 	c #070707",
"D 	c #080808",
"E 	c #080806",
"F 	c #141213",
"G 	c #474647",
"H 	c #868787",
"I 	c #9C9D9C",
"J 	c #AAABAB",
"K 	c #ADACAC",
"L 	c #AAAAA9",
"M 	c #A5A5A5",
"N 	c #9F9F9F",
"O 	c #818282",
"P 	c #414141",
"Q 	c #535352",
"R 	c #8B8B8B",
"S 	c #90908F",
"T 	c #898889",
"U 	c #474541",
"V 	c #222121",
"W 	c #7B7C7B",
"X 	c #9D9D9D",
"Y 	c #ABACAC",
"Z 	c #B1B1B1",
"` 	c #ABABAA",
" .	c #A5A4A5",
"..	c #838483",
"+.	c #424242",
"@.	c #535351",
"#.	c #8C8B8B",
"$.	c #929392",
"%.	c #818081",
"&.	c #46443F",
"*.	c #0C0C01",
"=.	c #020204",
"-.	c #373636",
";.	c #868887",
">.	c #9A9B9B",
",.	c #6B6B6B",
"'.	c #3A3A39",
").	c #616161",
"!.	c #888888",
"~.	c #7E7E7E",
"{.	c #424241",
"].	c #333433",
"^.	c #595858",
"/.	c #8A8B8A",
"(.	c #757475",
"_.	c #3D3B3A",
":.	c #0D0D0E",
"<.	c #1C1E1E",
"[.	c #393A3A",
"}.	c #707171",
"|.	c #717171",
"1.	c #383836",
"2.	c #1A1A18",
"3.	c #0D0D0D",
"4.	c #141414",
"5.	c #393938",
"6.	c #616060",
"7.	c #636362",
"8.	c #1F1F1F",
"9.	c #161716",
"0.	c #0A0A0A",
"a.	c #151515",
"b.	c #2F2E2E",
"c.	c #80807F",
"d.	c #252525",
"e.	c #131313",
"f.	c #42423E",
"g.	c #626060",
"h.	c #3B3B3B",
"i.	c #5B5C5C",
"j.	c #B3B2B3",
"k.	c #AFB0B0",
"l.	c #B9B9B8",
"m.	c #B0B0AF",
"n.	c #969796",
"o.	c #525350",
"p.	c #848483",
"q.	c #9D9D99",
"r.	c #9E9D9B",
"s.	c #9A9997",
"t.	c #858483",
"u.	c #474747",
"v.	c #121213",
"w.	c #272726",
"x.	c #B6B6B6",
"y.	c #ABABAB",
"z.	c #A8A8A7",
"A.	c #ACACAB",
"B.	c #979896",
"C.	c #616262",
"D.	c #52524E",
"E.	c #818181",
"F.	c #9D9D9A",
"G.	c #A2A09F",
"H.	c #838380",
"I.	c #242326",
"J.	c #373837",
"K.	c #1D1D1F",
"L.	c #151514",
"M.	c #0C0C0F",
"N.	c #10100F",
"O.	c #676768",
"P.	c #595959",
"Q.	c #4F4F4C",
"R.	c #464544",
"S.	c #3D3D3C",
"T.	c #2C2C2C",
"U.	c #3F3F3F",
"V.	c #7C7C7B",
"W.	c #525250",
"X.	c #62625E",
"Y.	c #1B1A1A",
"Z.	c #2C2D2C",
"`.	c #131515",
" +	c #272828",
".+	c #343434",
"++	c #53534F",
"@+	c #232221",
"#+	c #585756",
"$+	c #5C5C5A",
"%+	c #272424",
"&+	c #0E0F0F",
"*+	c #212120",
"=+	c #565654",
"-+	c #929292",
";+	c #838383",
">+	c #707070",
",+	c #585958",
"'+	c #898C88",
")+	c #7A7A78",
"!+	c #484844",
"~+	c #353232",
"{+	c #423E3E",
"]+	c #787574",
"^+	c #8D8D8B",
"/+	c #797775",
"(+	c #7B7977",
"_+	c #2B2728",
":+	c #2F2E2F",
"<+	c #1C1C1C",
"[+	c #1E1E1E",
"}+	c #555552",
"|+	c #848485",
"1+	c #7C7C7C",
"2+	c #565856",
"3+	c #525452",
"4+	c #131312",
"5+	c #646462",
"6+	c #4F4F4B",
"7+	c #2F2B2B",
"8+	c #050504",
"9+	c #555450",
"0+	c #979694",
"a+	c #71706D",
"b+	c #19191A",
"c+	c #0D0D00",
"d+	c #272224",
"e+	c #313132",
"f+	c #202020",
"g+	c #141400",
"h+	c #030305",
"i+	c #363634",
"j+	c #282828",
"k+	c #030302",
"l+	c #292929",
"m+	c #151516",
"n+	c #484744",
"o+	c #4F4D4C",
"p+	c #282829",
"q+	c #0D0D0C",
"r+	c #181502",
"s+	c #000103",
"t+	c #0B0B0B",
"u+	c #262626",
"v+	c #121313",
"w+	c #090909",
"x+	c #454441",
"y+	c #4A4848",
"z+	c #0E0E0E",
"A+	c #040404",
"B+	c #2B2929",
"C+	c #595B5B",
"D+	c #BDBDBC",
"E+	c #9C9D9D",
"F+	c #626462",
"G+	c #4C4C4C",
"H+	c #272727",
"I+	c #333532",
"J+	c #5F5F5B",
"K+	c #777673",
"L+	c #8A8A86",
"M+	c #8D8B89",
"N+	c #777773",
"O+	c #767370",
"P+	c #2A2A26",
"Q+	c #3D3D3A",
"R+	c #3F3E39",
"S+	c #222221",
"T+	c #212121",
"U+	c #9F9F9E",
"V+	c #B1B1B0",
"W+	c #2A2B2A",
"X+	c #161616",
"Y+	c #2A2A2A",
"Z+	c #3A3C3A",
"`+	c #474842",
" @	c #9E9D9A",
".@	c #63635F",
"+@	c #2E2E2D",
"@@	c #3B3933",
"#@	c #232322",
"$@	c #1B2121",
"%@	c #141313",
"&@	c #2B2D29",
"*@	c #44453F",
"=@	c #3D3D3B",
"-@	c #31312E",
";@	c #040403",
">@	c #232121",
",@	c #0D0808",
"'@	c #001415",
")@	c #040202",
"!@	c #20231F",
"~@	c #454640",
"{@	c #646363",
"]@	c #A0A0A0",
"^@	c #B6B6B5",
"/@	c #989B98",
"(@	c #868686",
"_@	c #353535",
":@	c #141314",
"<@	c #5A5B57",
"[@	c #7F807C",
"}@	c #878783",
"|@	c #91918D",
"1@	c #979693",
"2@	c #8A8885",
"3@	c #7E7B78",
"4@	c #363635",
"5@	c #5B5855",
"6@	c #4E4844",
"7@	c #1F1D1C",
"8@	c #A1A1A1",
"9@	c #B4B5B4",
"0@	c #717271",
"a@	c #2E2E2E",
"b@	c #3B3C3B",
"c@	c #636460",
"d@	c #5C5C59",
"e@	c #A6A4A1",
"f@	c #797875",
"g@	c #191818",
"h@	c #010001",
"i@	c #181411",
"j@	c #10100D",
"k@	c #1E1E1F",
"l@	c #595958",
"m@	c #272725",
"n@	c #313131",
"o@	c #3D3E3D",
"p@	c #656661",
"q@	c #444241",
"r@	c #434142",
"s@	c #0F1010",
"t@	c #030202",
"u@	c #0C0808",
"v@	c #070808",
"w@	c #292525",
"x@	c #3C3D3C",
"y@	c #61625D",
"z@	c #131213",
"A@	c #1A1A1A",
"B@	c #171717",
"C@	c #676666",
"D@	c #A3A3A3",
"E@	c #BCBCBC",
"F@	c #A8AAA9",
"G@	c #929492",
"H@	c #4E4F4E",
"I@	c #3C3D3B",
"J@	c #82837E",
"K@	c #9B9C97",
"L@	c #ABA9A6",
"M@	c #A8A6A2",
"N@	c #9D9C99",
"O@	c #9F9C9A",
"P@	c #888581",
"Q@	c #8E8B89",
"R@	c #6B6866",
"S@	c #393534",
"T@	c #232222",
"U@	c #BEBEBE",
"V@	c #B2B3B2",
"W@	c #5A5B5B",
"X@	c #868783",
"Y@	c #7D7D7A",
"Z@	c #A09E9C",
"`@	c #ABA9A5",
" #	c #A09E9B",
".#	c #74706F",
"+#	c #1A1A19",
"@#	c #30302F",
"##	c #050506",
"$#	c #111112",
"%#	c #696868",
"&#	c #969696",
"*#	c #696969",
"=#	c #393A39",
"-#	c #161717",
";#	c #7E807C",
">#	c #3C3C3B",
",#	c #4F4C4B",
"'#	c #40403E",
")#	c #161010",
"!#	c #272927",
"~#	c #1B1C1B",
"{#	c #232522",
"]#	c #444542",
"^#	c #363636",
"/#	c #363534",
"(#	c #242020",
"_#	c #110F10",
":#	c #252524",
"<#	c #222222",
"[#	c #1A1C1A",
"}#	c #646463",
"|#	c #A3A5A4",
"1#	c #BFBFBE",
"2#	c #ACADAB",
"3#	c #8C8D8C",
"4#	c #5E5F5E",
"5#	c #1E1D1D",
"6#	c #60625E",
"7#	c #888984",
"8#	c #92928E",
"9#	c #9F9D9A",
"0#	c #ABA7A5",
"a#	c #A1A09C",
"b#	c #979591",
"c#	c #9E9A97",
"d#	c #9C9996",
"e#	c #95918E",
"f#	c #6E6C6B",
"g#	c #474746",
"h#	c #262727",
"i#	c #B5B6B4",
"j#	c #5B5C59",
"k#	c #747572",
"l#	c #878884",
"m#	c #AEABA9",
"n#	c #A19F9B",
"o#	c #999693",
"p#	c #9F9B98",
"q#	c #84817E",
"r#	c #868280",
"s#	c #565353",
"t#	c #242525",
"u#	c #A1A2A1",
"v#	c #7A7B7A",
"w#	c #5F605D",
"x#	c #6D6E6B",
"y#	c #50504F",
"z#	c #464443",
"A#	c #60615F",
"B#	c #72706D",
"C#	c #524F4C",
"D#	c #393838",
"E#	c #6A6766",
"F#	c #5C5958",
"G#	c #343535",
"H#	c #1B201B",
"I#	c #222122",
"J#	c #4C4C4A",
"K#	c #2C2F2D",
"L#	c #323231",
"M#	c #323334",
"N#	c #2D2B28",
"O#	c #242322",
"P#	c #676564",
"Q#	c #5D5A59",
"R#	c #1C231C",
"S#	c #212021",
"T#	c #121211",
"U#	c #191916",
"V#	c #626162",
"W#	c #9FA0A0",
"X#	c #A8A9A8",
"Y#	c #979A97",
"Z#	c #7E827E",
"`#	c #656A65",
" $	c #343534",
".$	c #2A302A",
"+$	c #4F524E",
"@$	c #888B86",
"#$	c #484747",
"$$	c #444441",
"%$	c #484545",
"&$	c #767371",
"*$	c #424240",
"=$	c #2A2829",
"-$	c #282424",
";$	c #1C1B1B",
">$	c #9B9E9A",
",$	c #727572",
"'$	c #010000",
")$	c #2C2D2B",
"!$	c #555753",
"~$	c #454544",
"{$	c #515150",
"]$	c #454542",
"^$	c #7B7776",
"/$	c #3F3F3A",
"($	c #282728",
"_$	c #272222",
":$	c #9C9C9C",
"<$	c #6F6F6F",
"[$	c #3E3D3E",
"}$	c #242424",
"|$	c #2F312E",
"1$	c #4D4F4B",
"2$	c #292827",
"3$	c #21221E",
"4$	c #252121",
"5$	c #3F3D3C",
"6$	c #6D6969",
"7$	c #3C3C37",
"8$	c #515151",
"9$	c #414241",
"0$	c #181817",
"a$	c #010101",
"b$	c #0C0C0B",
"c$	c #302F29",
"d$	c #2C2C2D",
"e$	c #272323",
"f$	c #010201",
"g$	c #151513",
"h$	c #030404",
"i$	c #201B1B",
"j$	c #646464",
"k$	c #9A9B9A",
"l$	c #969594",
"m$	c #797D79",
"n$	c #797C7A",
"o$	c #7D7F7C",
"p$	c #616761",
"q$	c #515450",
"r$	c #3C3E39",
"s$	c #454742",
"t$	c #5B5B59",
"u$	c #797976",
"v$	c #696764",
"w$	c #74716F",
"x$	c #928F8D",
"y$	c #73706D",
"z$	c #444443",
"A$	c #7F8280",
"B$	c #50504E",
"C$	c #222922",
"D$	c #2F302C",
"E$	c #242823",
"F$	c #71716E",
"G$	c #6A6966",
"H$	c #565454",
"I$	c #41413F",
"J$	c #939493",
"K$	c #555455",
"L$	c #2B2E2B",
"M$	c #303130",
"N$	c #121512",
"O$	c #31332E",
"P$	c #565553",
"Q$	c #484645",
"R$	c #535151",
"S$	c #909190",
"T$	c #3E3E3E",
"U$	c #292A2A",
"V$	c #0A0A00",
"W$	c #20251B",
"X$	c #808080",
"Y$	c #050808",
"Z$	c #0E0000",
"`$	c #6B6A69",
" %	c #A4A4A4",
".%	c #989A97",
"+%	c #717571",
"@%	c #707470",
"#%	c #797C77",
"$%	c #6D706B",
"%%	c #858782",
"&%	c #5B5E5B",
"*%	c #1D1D1D",
"=%	c #464642",
"-%	c #A4A49F",
";%	c #B9B8B2",
">%	c #5A5756",
",%	c #6D6D6A",
"'%	c #ACA9A6",
")%	c #ACA8A6",
"!%	c #706E6C",
"~%	c #717671",
"{%	c #6F746E",
"]%	c #1E1D1E",
"^%	c #0A0A0B",
"/%	c #141415",
"(%	c #8F8E8A",
"_%	c #646160",
":%	c #020102",
"<%	c #4A4645",
"[%	c #4B4B48",
"}%	c #5F5E5D",
"|%	c #5D5D5D",
"1%	c #40403F",
"2%	c #2B2D2C",
"3%	c #2F342E",
"4%	c #72716D",
"5%	c #4D4A49",
"6%	c #322B2B",
"7%	c #41413E",
"8%	c #323230",
"9%	c #3C3C3C",
"0%	c #545351",
"a%	c #484544",
"b%	c #090A0A",
"c%	c #020101",
"d%	c #060707",
"e%	c #0A0B0C",
"f%	c #1D1C1D",
"g%	c #3A3938",
"h%	c #21201F",
"i%	c #040707",
"j%	c #6D6D6C",
"k%	c #A4A5A4",
"l%	c #8A8D8A",
"m%	c #6B726A",
"n%	c #636963",
"o%	c #686D64",
"p%	c #666A63",
"q%	c #646864",
"r%	c #3F423F",
"s%	c #51534F",
"t%	c #8C8C88",
"u%	c #B6B5B0",
"v%	c #A9A8A4",
"w%	c #474744",
"x%	c #545250",
"y%	c #928F8C",
"z%	c #969390",
"A%	c #6B6A68",
"B%	c #373633",
"C%	c #272626",
"D%	c #8A8D89",
"E%	c #6C736A",
"F%	c #646A63",
"G%	c #63685F",
"H%	c #2E2D2C",
"I%	c #6C6C6A",
"J%	c #9C9C98",
"K%	c #242523",
"L%	c #666362",
"M%	c #95928F",
"N%	c #767573",
"O%	c #373634",
"P%	c #555554",
"Q%	c #393B39",
"R%	c #2C302C",
"S%	c #2A2A27",
"T%	c #070507",
"U%	c #09090A",
"V%	c #4B4B49",
"W%	c #414240",
"X%	c #060607",
"Y%	c #292927",
"Z%	c #474443",
"`%	c #373434",
" &	c #393736",
".&	c #090809",
"+&	c #292B29",
"@&	c #2B332B",
"#&	c #040604",
"$&	c #4A4A48",
"%&	c #231F1F",
"&&	c #0B0909",
"*&	c #1B1414",
"=&	c #2C2B29",
"-&	c #262625",
";&	c #0F0E0F",
">&	c #6B6B6C",
",&	c #9E9F9E",
"'&	c #767A76",
")&	c #505850",
"!&	c #4F544D",
"~&	c #555952",
"{&	c #323731",
"]&	c #242425",
"^&	c #2C2E2D",
"/&	c #6C6E69",
"(&	c #868682",
"_&	c #9D9B99",
":&	c #636060",
"<&	c #403D3C",
"[&	c #464545",
"}&	c #6F6D69",
"|&	c #5B5958",
"1&	c #282822",
"2&	c #20201E",
"3&	c #767B76",
"4&	c #575E56",
"5&	c #444A44",
"6&	c #191A18",
"7&	c #0A1908",
"8&	c #2A2D2A",
"9&	c #1C1C1A",
"0&	c #9A9896",
"a&	c #595856",
"b&	c #010102",
"c&	c #1F1F1D",
"d&	c #504F4E",
"e&	c #716F6B",
"f&	c #5B5857",
"g&	c #292822",
"h&	c #222220",
"i&	c #7B7B7B",
"j&	c #393C39",
"k&	c #212321",
"l&	c #102111",
"m&	c #0A090A",
"n&	c #071607",
"o&	c #292C2A",
"p&	c #353531",
"q&	c #434343",
"r&	c #373736",
"s&	c #494645",
"t&	c #2D2D2D",
"u&	c #2D2E2D",
"v&	c #222522",
"w&	c #2A2A29",
"x&	c #1A1919",
"y&	c #292121",
"z&	c #2B2C2A",
"A&	c #020302",
"B&	c #666766",
"C&	c #959595",
"D&	c #6D726E",
"E&	c #4C534D",
"F&	c #3B4036",
"G&	c #343B33",
"H&	c #151415",
"I&	c #030304",
"J&	c #0D0D0A",
"K&	c #5F605C",
"L&	c #7E7E7A",
"M&	c #8D8C8A",
"N&	c #939390",
"O&	c #7A7A76",
"P&	c #535250",
"Q&	c #333334",
"R&	c #3B3937",
"S&	c #1E1C1B",
"T&	c #6E736E",
"U&	c #373C38",
"V&	c #0B0C0B",
"W&	c #141814",
"X&	c #111011",
"Y&	c #202121",
"Z&	c #50514F",
"`&	c #7A7A77",
" *	c #868582",
".*	c #333333",
"+*	c #333332",
"@*	c #3A3A37",
"#*	c #1B1B1A",
"$*	c #262828",
"%*	c #1D1F1F",
"&*	c #040803",
"**	c #141914",
"=*	c #434542",
"-*	c #151413",
";*	c #2E2F2E",
">*	c #3B3836",
",*	c #1F1C1C",
"'*	c #5D5E5D",
")*	c #2C2D2A",
"!*	c #1A1B1A",
"~*	c #171817",
"{*	c #616261",
"]*	c #898A88",
"^*	c #696D6A",
"/*	c #4F564F",
"(*	c #222322",
"_*	c #2B2F2B",
":*	c #1C1C1D",
"<*	c #3E403D",
"[*	c #6F716D",
"}*	c #7D7B76",
"|*	c #7D7E7A",
"1*	c #686965",
"2*	c #5D5F5C",
"3*	c #3A3A34",
"4*	c #191718",
"5*	c #1A1B1B",
"6*	c #8A8C89",
"7*	c #585D5C",
"8*	c #0B0D0E",
"9*	c #151915",
"0*	c #7B7874",
"a*	c #585955",
"b*	c #242423",
"c*	c #171616",
"d*	c #201C1C",
"e*	c #717471",
"f*	c #363737",
"g*	c #21211B",
"h*	c #2E2E2A",
"i*	c #383A36",
"j*	c #211D1D",
"k*	c #5B5B5B",
"l*	c #2F2F2F",
"m*	c #606260",
"n*	c #808281",
"o*	c #535953",
"p*	c #2B2D2B",
"q*	c #2D302D",
"r*	c #414540",
"s*	c #51584E",
"t*	c #6D746C",
"u*	c #636763",
"v*	c #282C25",
"w*	c #474B43",
"x*	c #6D716C",
"y*	c #5D5F5A",
"z*	c #444742",
"A*	c #464842",
"B*	c #303030",
"C*	c #161715",
"D*	c #818281",
"E*	c #515551",
"F*	c #141514",
"G*	c #1E1F1E",
"H*	c #3D3F3D",
"I*	c #4B5049",
"J*	c #343735",
"K*	c #1E1E1A",
"L*	c #595B57",
"M*	c #3C3D39",
"N*	c #474945",
"O*	c #2E2E26",
"P*	c #010100",
"Q*	c #848584",
"R*	c #565B56",
"S*	c #111411",
"T*	c #0B1F0B",
"U*	c #383C38",
"V*	c #282928",
"W*	c #272625",
"X*	c #474944",
"Y*	c #2F3028",
"Z*	c #121712",
"`*	c #070B07",
" =	c #404040",
".=	c #595859",
"+=	c #727272",
"@=	c #303230",
"#=	c #303731",
"$=	c #414A40",
"%=	c #555D53",
"&=	c #575F55",
"*=	c #5B635B",
"==	c #5F655E",
"-=	c #2E312C",
";=	c #323330",
">=	c #4C524A",
",=	c #4F514D",
"'=	c #3B3C38",
")=	c #403E3C",
"!=	c #232821",
"~=	c #191819",
"{=	c #5B5A5B",
"]=	c #747474",
"^=	c #313431",
"/=	c #363C36",
"(=	c #444E43",
"_=	c #555E53",
":=	c #5C645A",
"<=	c #616961",
"[=	c #676E66",
"}=	c #30342F",
"|=	c #2E302D",
"1=	c #060507",
"2=	c #1F1E1E",
"3=	c #343432",
"4=	c #1D1D0F",
"5=	c #1A1A1C",
"6=	c #727372",
"7=	c #2F322E",
"8=	c #1B201C",
"9=	c #171A18",
"0=	c #212621",
"a=	c #3E403C",
"b=	c #596159",
"c=	c #373B39",
"d=	c #1B1B11",
"e=	c #2F2F2D",
"f=	c #1B1F0D",
"g=	c #1F1E21",
"h=	c #171718",
"i=	c #0E0E0F",
"j=	c #060700",
"k=	c #0E0E00",
"l=	c #545254",
"m=	c #2B2A2B",
"n=	c #000A00",
"o=	c #000300",
"p=	c #030300",
"q=	c #14140F",
"r=	c #070708",
"s=	c #010202",
"t=	c #393939",
"u=	c #414541",
"v=	c #1C211C",
"w=	c #383F36",
"x=	c #374137",
"y=	c #424840",
"z=	c #4B4F4A",
"A=	c #3F473D",
"B=	c #303331",
"C=	c #262524",
"D=	c #050805",
"E=	c #191817",
"F=	c #212020",
"G=	c #22231D",
"H=	c #26261F",
"I=	c #1D1F1E",
"J=	c #1D1F1D",
"K=	c #384037",
"L=	c #262523",
"M=	c #040406",
"N=	c #414441",
"O=	c #070809",
"P=	c #0D0D01",
"Q=	c #20241C",
"R=	c #353A33",
"S=	c #4B4E49",
"T=	c #41493F",
"U=	c #28292A",
"V=	c #0A0900",
"W=	c #1A1D1C",
"X=	c #222422",
"Y=	c #000F00",
"Z=	c #13200F",
"`=	c #20231D",
" -	c #201E22",
".-	c #0B0A01",
"+-	c #3A3A3A",
"@-	c #2E352E",
"#-	c #090900",
"$-	c #1D1E1E",
"%-	c #130B0B",
"&-	c #0F0808",
"*-	c #190719",
"=-	c #1F251F",
"--	c #212821",
";-	c #242A24",
">-	c #262B25",
",-	c #2B2B26",
"'-	c #202321",
")-	c #1F191F",
"!-	c #191719",
"~-	c #030203",
"{-	c #121711",
"]-	c #1E191E",
"^-	c #1C1A1C",
"/-	c #180618",
"(-	c #0A0D0B",
"_-	c #161615",
":-	c #262D25",
"<-	c #2B2B27",
"[-	c #201A20",
"}-	c #121113",
"|-	c #140214",
"1-	c #000400",
"2-	c #000200",
"3-	c #10120F",
"4-	c #221C22",
"5-	c #161417",
"6-	c #180718",
"7-	c #090F09",
"8-	c #050303",
"9-	c #000101",
". + @ # $ % & * = - ; > , ' ) ! ~ { ] ^ ^ / ( _ $ % & * = - ; > , : ) < [ } | 1 + 2 3 # $ 4 5 6 7 8 ; 9 0 a ) b c + + d ^ e f g h i 5 j k l ^ + m n o p 1 q r ^ + + s t u + v w + + x y 0 z A B + C D + ",
"E F G H I J K L M N O P Q R S T U + + + + + V W X Y Z `  .N ..+.@.#.$.%.&.*.=.+ + + -.;.X >.,.'.).!.~.{.].^./.(._.+ + + + :.w <.[.}.|.1.2.3.+ 4.5.6.7.8.4.+ + + + + + + 9.0.+ + + + a.d r b.c.d.e.+ + + ",
"f.g.h.i.j.k.l.m.n.).o.p.q.r.s.t.u.v.v 0.w.e.q i x.y.z.A.B.C.D.E.F.G.H.I.J.K.L.0.M.N.a.O.M P.Q.R.S.T.U.V.W.S.X.Y.Z.3.+ + M.+ + `. +.+++@++ + + #+$+# h.C q + + + + + + + + 0.+ + + + C %+&++ *+0.q + + + ",
"=+-+;+>+,+,.'+)+!+~+{+]+^+/+(+++_+:+<+[+}+|+1+- 2+3+4+5+6+7+8+9+0+a+b+c+d+e+f+[+g+h+a.i+u.j+k+l+<+m+1 n+o+p+q++ v.+ D | r+s+t++ v u+8+v++ w++ x+y+B C + + + + + + + + z+A++ + + + + + b.B++ + + + + + + ",
"C+X D+E+F+.+G+H+I+J+K+L+M+N+O+P+Q+R+S+T+C+U+V+W+X+u+Y+B Z+`++ !+ @.@D 4.+@@@#@T+$@%@X+D + T+Y+l &@*@+ ~ =@-@;@4.>@,@D 8.'@)@. + + u+4.+ !@~@+ d.. + + + + + + + + + + + + + + + + + + d.. + + + + + + + ",
"{@]@^@/@(@_@:@T+<@[@}@|@1@2@3@4@5@6@7@f+{@8@9@0@3.z+a@a.b@c@w d@e@f@g@+ h@i@j@k@6.l@m@+ + + n@X+o@p@0.u+q@r@s@+ t@u@v@8.w@e.+ + + z+j+z+x@y@0.z@+ + + + 1 + + A@B@+ + A+p + + + + + A+4.+ + + + + + + + ",
"C@D@E@F@G@H@+ I@J@|@K@L@M@N@O@P@Q@R@S@T@C@D@U@V@W@+ c m+[ X@Y@Z@`@ #.#+#@###$#T+%#&#*#=#v + z+-#Z.;#Q.>#,#'#b.w+#@0.e.T+)#!#e.+ + + A@~#{#]#^#/#(#_#r t+:#w a.<#e.[#+ A@f++ t+v + + . 8.q + + + + + + + ",
"}#|#1#2#3#4#5#6#7#8#9#0#a#b#c#d#e#f#g#h#}#|#1#i#*#+ L.j#k#l#q.m#n#o#p#q#r#s#h.t#}#u#v#u.<++ 0.w#x#y#6 z#A#B#C#D#E#F#h.t#G#H#I#X+1 + L.J#K#D t+L#M#N#O#[+P#Q#h.t#o R#S#<+w + T#U#+ + + q + + + + t+1 s@s@",
"V#W#X#Y#Z#`# $.$+$@$K+#$$$q@%$&$*$=$-$;$V#W#X#>$,$b+'$)$!$a.~${$]$q@A ^$/$($_$T@V#:$<$[$}$+ p |$1$t+8.2$3$4$5$6$7$p+_$T@8$9$.+D + + p 0$h@+ + v a$b$d l c$d$e$T@^#f$d.w + + p g$+ + . + + + + &+e.h$i$>@",
"j$k$l$m$n$o$p$q$r$s$T+t$u$v$w$x$y$z$f+v j$k$l$m$A$B$+ C$D$E$l 6 F$G$H$I$+ t+| A@j$J$K$L$M$+ + N$O$E$l +.P$Q$R$I$+ t+| A@j$S$T$+ + + A+B@B@A++ A+4.U$7+T++ D a.A@+ e.+ + + + + + V$W$l X$a.Y$Z$T++ D a.A@",
"`$ %.%+%@%#%$%%%&%*%=%-%;%>%,%'%)%!%y 0.`$ %.%+%~%{%]%+ ^%]%/%. (%_%A+:%<%[%@#]%}%|%1%2%3%l + + 0.]%a.z+4%5%A++ 6%7%8%<+8$9%9%9.+ + d + + v + r 0%a%b%c%X+d%<#8.+ + + + + + + + e%f%X+w+g%h%i%+ d 1 c *%",
"j%k%l%m%n%o%p%q%r%s%t%u%v%w%x%y%z%A%B%C%j%k%D%E%F%G%H%+ . e.E I%J%u+K%L%M%N%O%B P%h.Q%R%S%H+T%+ . e.U%V%W%X%Y%Z%`%R$ &z+c .&+&@&#&+ + + v ^ + S.$&w+}$%&&&*&=&-&+ + + + + + + + ;&A@+ j+C + t+. + + + 8.",
">&,&'&)&!&~&{&]&^&/&(&_&n#:&<&[&}&|&1&2&>&,&3&4&5&6&7&+ 8&9&!+0&a&b&c&d&e&f&g&h&O.i&j&k&l&m&n&+ o&2&p&q&T+p h&S.r&s&H++ 8.t&u&v&p + + + 4.a$+ u+w&C x&A+'$y&z&<++ + + t+v + + + v&A&+ 4.+ + + + + + v | ",
"B&C&D&E&F&G&H&I&J&K&L&M&N&O&P&Q&L#R&S&f+B&C&T&U&V&+ W&X&Y&Z&`& *w&+ B@.*+*@*#*| B&,.$*%*&*+ **X&}$=*^#_@-*+ B@.*;*>*,*v '*9%+ A+a$+ X+r B@B@+ <+^ + 4.^ ;@)*t+1 d.. + v a$+ v B@!*~*+ e.+ + + + + + . C ",
"{*]*^*/*(*l _*M$:*<*[*}*|*1*2*3*4*i$5*f+{*6*7*8*+ 4.1 . + 9*[*0*a*b*b&4.c*d*C + {*e*f*w + 4.1 . + m+g*h*i*l+a$4.c*j*A@v k*l*C + + 4.+ + + + 4.+ + + + 4.c*d*C + k*e.+ + + + + + + + T+. + + + + + + . A+",
"m*n*o*p*q*r*s*t*u*v*w*x*y*z*A*B*C*d%l f+m*D*E*F*G*H*G&I*J*K*w*L*M*N*O*+ P*e%w v m*Q*R*S*e.~*T*U*V*B@+ d W*X*Y*+ P*e%C + f+z+B@C + + D l a.a.+ + + + + + P*+ + + X$Z*:@`*+ + + + t+$# =0.w t++ + + + + + ",
".=+=@=#=$=%=&=*===-=;=>=,='=)=i+!=~=d 8.{=]=^=/=(=_=:=<=[=}=;=|=1=2=3=D 4=5=X+[+.=6=7=8=9=0=a=b=c=d=+ + + V e=0.f=g=C + r a.A++ + + h%h=i=j=+ + + + + + k=+ + + l=m=+ n=o=+ w++ + p=q=r=-#s=+ + + + + + ",
"t=u=v=w=x=y=z=A=B=C=C D=E=F=G=H=I=A@[+T+B*^#J=K=x=y=z=A=B=L=A+~=+ + A@| M=z+[+*%t=N=O=P=Q=R=S=T=U=V=+ + + a$p 0.W=;$w++ Y+X=+ + + Y=Z=`= -.-+ + + + + + + + + + +-@-+ + + + w++ + #-+ $-%-&-v + + + + + ",
"*%*-=---;->-,-'-)-!-+ + + v ;@k+f+<#<#T+A+A+~-{-;->-,-'-]-^-z++ + + 1 A+1 A@3.1 *%/-(-+ _-:-<-k&[-}-+ + + + + + A+A+a$+ 8.|-+ + + 1-2-3-4-5-. + + + + + + + + + *%6-7-+ + + + + + + + A+)@8-9-+ + + + + ",
"<#l [+<#<#<#<#<#B A@+ + + + + 4.B <#<#<#+ + + 0.8.T+<#<#<#<#<#. + + + + + + + + <#A@t++ + + u+<#<#<#<++ + . A++ + + + + <#. + + + + v *%B <#<++ [+[+v + + + . A+<#A@w+3.A++ + + + + + + + + + + + + + + "};
