/* XPM */
static char * freezing_animation_xpm[] = {
"80 20 465 2",
"  	c #000000",
". 	c None",
"+ 	c #101010",
"@ 	c #232222",
"# 	c #020202",
"$ 	c #0B0B0C",
"% 	c #4A4B49",
"& 	c #373635",
"* 	c #0D0C0D",
"= 	c #4E4E4C",
"- 	c #5F5F5F",
"; 	c #010101",
"> 	c #333333",
", 	c #626362",
"' 	c #6E6C6B",
") 	c #212020",
"! 	c #494948",
"~ 	c #53504E",
"{ 	c #686464",
"] 	c #504F4C",
"^ 	c #0E110F",
"/ 	c #141414",
"( 	c #181818",
"_ 	c #424240",
": 	c #373734",
"< 	c #2C2B2A",
"[ 	c #43413D",
"} 	c #020203",
"| 	c #595B5B",
"1 	c #9D9D9D",
"2 	c #C3C3C2",
"3 	c #797979",
"4 	c #090909",
"5 	c #1A1A19",
"6 	c #8E8F8A",
"7 	c #71746E",
"8 	c #74746F",
"9 	c #777673",
"0 	c #7C7C79",
"a 	c #1B1B1B",
"b 	c #716F6B",
"c 	c #666662",
"d 	c #5C5C58",
"e 	c #42413B",
"f 	c #1C1D1B",
"g 	c #030303",
"h 	c #484545",
"i 	c #313131",
"j 	c #121212",
"k 	c #272727",
"l 	c #262624",
"m 	c #908F8B",
"n 	c #3A3B38",
"o 	c #0A0A0A",
"p 	c #4F4C49",
"q 	c #534E49",
"r 	c #161412",
"s 	c #646363",
"t 	c #A0A0A0",
"u 	c #B5B5B4",
"v 	c #A3A6A3",
"w 	c #6C6D6C",
"x 	c #1C1D1C",
"y 	c #484848",
"z 	c #7B7D79",
"A 	c #6E716D",
"B 	c #7D7F7B",
"C 	c #878783",
"D 	c #93938F",
"E 	c #A6A4A1",
"F 	c #969491",
"G 	c #8C8A86",
"H 	c #73726F",
"I 	c #706C69",
"J 	c #48433F",
"K 	c #201E1D",
"L 	c #242324",
"M 	c #6D6C6C",
"N 	c #A4A5A4",
"O 	c #5E5E5E",
"P 	c #373836",
"Q 	c #050505",
"R 	c #2C2C2C",
"S 	c #41423F",
"T 	c #5E5E5C",
"U 	c #9B9C97",
"V 	c #525150",
"W 	c #151515",
"X 	c #403F3F",
"Y 	c #4A4A49",
"Z 	c #74706F",
"` 	c #403D3B",
" .	c #070606",
"..	c #676666",
"+.	c #A3A3A3",
"@.	c #BCBCBC",
"#.	c #A6A8A6",
"$.	c #969796",
"%.	c #9EA09D",
"&.	c #868683",
"*.	c #7D7E7A",
"=.	c #848580",
"-.	c #8F908C",
";.	c #A8A6A3",
">.	c #A4A29E",
",.	c #999895",
"'.	c #9D9B98",
").	c #94908D",
"!.	c #908D8B",
"~.	c #676563",
"{.	c #383433",
"].	c #646463",
"^.	c #A7A8A7",
"/.	c #CFD0CF",
"(.	c #5E5F5E",
"_.	c #454645",
":.	c #878984",
"<.	c #9B9A97",
"[.	c #403E3E",
"}.	c #323331",
"|.	c #52504F",
"1.	c #575554",
"2.	c #82807E",
"3.	c #4C4C4C",
"4.	c #A3A5A4",
"5.	c #BFBFBE",
"6.	c #ACADAC",
"7.	c #878988",
"8.	c #797B79",
"9.	c #71746F",
"0.	c #848582",
"a.	c #888986",
"b.	c #8F8F8C",
"c.	c #9B9A96",
"d.	c #B1AEAB",
"e.	c #ADAAA6",
"f.	c #A19F9A",
"g.	c #A6A29E",
"h.	c #9D9996",
"i.	c #999693",
"j.	c #767473",
"k.	c #484948",
"l.	c #252525",
"m.	c #151514",
"n.	c #4A4B47",
"o.	c #080808",
"p.	c #242323",
"q.	c #626162",
"r.	c #A4A4A4",
"s.	c #6D6D6D",
"t.	c #565A55",
"u.	c #898C87",
"v.	c #91938C",
"w.	c #979691",
"x.	c #969490",
"y.	c #424040",
"z.	c #484444",
"A.	c #454443",
"B.	c #7F7C79",
"C.	c #433E3E",
"D.	c #9FA0A0",
"E.	c #A8A9A8",
"F.	c #979A97",
"G.	c #7D807D",
"H.	c #707470",
"I.	c #676C67",
"J.	c #7B8079",
"K.	c #81847F",
"L.	c #B0AEAA",
"M.	c #B3B0AD",
"N.	c #B0ADA9",
"O.	c #B4B1AD",
"P.	c #A8A3A0",
"Q.	c #9B9896",
"R.	c #706D6B",
"S.	c #423D3D",
"T.	c #222222",
"U.	c #4D504B",
"V.	c #A3A69F",
"W.	c #262626",
"X.	c #292929",
"Y.	c #0E0E0E",
"Z.	c #1D1C1C",
"`.	c #787674",
" +	c #646464",
".+	c #9C9D9C",
"++	c #7D7E7D",
"@+	c #0A0B0A",
"#+	c #0D0D0D",
"$+	c #7D7F7C",
"%+	c #6E746E",
"&+	c #797E78",
"*+	c #7E837C",
"=+	c #90938D",
"-+	c #9D9D98",
";+	c #A2A19E",
">+	c #353534",
",+	c #383837",
"'+	c #4C4C4A",
")+	c #A3A09D",
"!+	c #706E6C",
"~+	c #9A9B9A",
"{+	c #969594",
"]+	c #797D79",
"^+	c #797C7A",
"/+	c #B5B3B0",
"(+	c #B7B5B1",
"_+	c #B7B4B0",
":+	c #C0BCB9",
"<+	c #1C1C1C",
"[+	c #4E4E4D",
"}+	c #7C7D7C",
"|+	c #232422",
"1+	c #747671",
"2+	c #90928C",
"3+	c #5E5E5B",
"4+	c #444443",
"5+	c #444441",
"6+	c #0B0B0B",
"7+	c #565652",
"8+	c #252524",
"9+	c #6B6A69",
"0+	c #A3A4A3",
"a+	c #9B9D9A",
"b+	c #7F847F",
"c+	c #7E837E",
"d+	c #797C77",
"e+	c #6A6E68",
"f+	c #80847E",
"g+	c #80847F",
"h+	c #888A83",
"i+	c #94948F",
"j+	c #ADAEA9",
"k+	c #C1C0BB",
"l+	c #BCB9B4",
"m+	c #C2BFBB",
"n+	c #A8A5A2",
"o+	c #A5A1A0",
"p+	c #6B6A67",
"q+	c #373733",
"r+	c #232322",
"s+	c #989A97",
"t+	c #717571",
"u+	c #787C77",
"v+	c #ABABA7",
"w+	c #B1B0AB",
"x+	c #ACA9A4",
"y+	c #B3B1AD",
"z+	c #3C3C3C",
"A+	c #777877",
"B+	c #5F605F",
"C+	c #10110F",
"D+	c #7D827A",
"E+	c #90948E",
"F+	c #8B8D88",
"G+	c #A4A59E",
"H+	c #C3C1BC",
"I+	c #BEBEB9",
"J+	c #434342",
"K+	c #161716",
"L+	c #3D3D3B",
"M+	c #0F0F0F",
"N+	c #6D6D6C",
"O+	c #8A8D8A",
"P+	c #6B726A",
"Q+	c #636963",
"R+	c #686E65",
"S+	c #6A6E67",
"T+	c #80847D",
"U+	c #888C86",
"V+	c #8D8F8A",
"W+	c #999A94",
"X+	c #AFADA9",
"Y+	c #A09E9A",
"Z+	c #A6A39F",
"`+	c #989592",
" @	c #969390",
".@	c #6A6968",
"+@	c #353432",
"@@	c #737373",
"#@	c #5D605D",
"$@	c #131313",
"%@	c #8D908A",
"&@	c #717570",
"*@	c #737670",
"=@	c #82827E",
"-@	c #9D9B99",
";@	c #A9A7A3",
">@	c #8D8C89",
",@	c #2E2D2E",
"'@	c #31312A",
")@	c #232321",
"!@	c #6B6B6C",
"~@	c #9E9F9E",
"{@	c #767A76",
"]@	c #505850",
"^@	c #4D514A",
"/@	c #5D625A",
"(@	c #666A63",
"_@	c #7A7B77",
":@	c #727571",
"<@	c #A3A29E",
"[@	c #93918F",
"}@	c #94938F",
"|@	c #868380",
"1@	c #7E7B79",
"2@	c #585755",
"3@	c #282722",
"4@	c #20201E",
"5@	c #5D5E5D",
"6@	c #7B7B7B",
"7@	c #3D413D",
"8@	c #030304",
"9@	c #0A0907",
"0@	c #565756",
"a@	c #0B0B00",
"b@	c #54524F",
"c@	c #333130",
"d@	c #000001",
"e@	c #666766",
"f@	c #959595",
"g@	c #6F736F",
"h@	c #363D36",
"i@	c #2F2F2F",
"j@	c #6A6D68",
"k@	c #6B6D69",
"l@	c #7D7D7A",
"m@	c #8E8D8A",
"n@	c #92928F",
"o@	c #767673",
"p@	c #53514F",
"q@	c #3E3938",
"r@	c #1D1B1A",
"s@	c #202020",
"t@	c #6D726E",
"u@	c #4A534B",
"v@	c #3C4238",
"w@	c #4A4E45",
"x@	c #5B5E5A",
"y@	c #7F7F7B",
"z@	c #787875",
"A@	c #6A6967",
"B@	c #686562",
"C@	c #413C3A",
"D@	c #1D1A19",
"E@	c #616261",
"F@	c #898A88",
"G@	c #6C726E",
"H@	c #434944",
"I@	c #060706",
"J@	c #2A2C2A",
"K@	c #6F756F",
"L@	c #747672",
"M@	c #0B0A0B",
"N@	c #151B16",
"O@	c #454541",
"P@	c #474541",
"Q@	c #2C2A2B",
"R@	c #686D6A",
"S@	c #5B645C",
"T@	c #40463F",
"U@	c #434943",
"V@	c #4B524B",
"W@	c #626A64",
"X@	c #676C66",
"Y@	c #6C6F6B",
"Z@	c #777974",
"`@	c #7C7A75",
" #	c #686965",
".#	c #5C5D5A",
"+#	c #2A2828",
"@#	c #606260",
"##	c #828382",
"$#	c #616962",
"%#	c #3F413E",
"&#	c #242624",
"*#	c #383B37",
"=#	c #737B72",
"-#	c #6D726D",
";#	c #697069",
">#	c #71766D",
",#	c #3D403B",
"'#	c #252521",
")#	c #3D403D",
"!#	c #50524C",
"~#	c #272824",
"{#	c #242525",
"]#	c #141314",
"^#	c #646A63",
"/#	c #59605A",
"(#	c #505450",
"_#	c #525952",
":#	c #52594E",
"<#	c #656B64",
"[#	c #6E736E",
"}#	c #6A716A",
"|#	c #696E65",
"1#	c #696D68",
"2#	c #5D5E5A",
"3#	c #444742",
"4#	c #464841",
"5#	c #222323",
"6#	c #595859",
"7#	c #848585",
"8#	c #676C68",
"9#	c #565F57",
"0#	c #4C564B",
"a#	c #5A6258",
"b#	c #5B6459",
"c#	c #596059",
"d#	c #606760",
"e#	c #545A51",
"f#	c #5D5F5A",
"g#	c #616660",
"h#	c #575A56",
"i#	c #3D3E3B",
"j#	c #3E3C3B",
"k#	c #353533",
"l#	c #222921",
"m#	c #1F211F",
"n#	c #212121",
"o#	c #576058",
"p#	c #485247",
"q#	c #51594F",
"r#	c #565E54",
"s#	c #5A615A",
"t#	c #585C57",
"u#	c #4C4E4B",
"v#	c #3E3D3B",
"w#	c #1F2120",
"x#	c #1F1F1F",
"y#	c #383C3C",
"z#	c #656665",
"A#	c #585C59",
"B#	c #3F463E",
"C#	c #353F35",
"D#	c #424840",
"E#	c #4B4F4A",
"F#	c #3F473D",
"G#	c #303331",
"H#	c #232421",
"I#	c #2C312C",
"J#	c #262622",
"K#	c #211E1E",
"L#	c #22201B",
"M#	c #282924",
"N#	c #252620",
"O#	c #1C1E1D",
"P#	c #1B1A1B",
"Q#	c #232424",
"R#	c #2D272D",
"S#	c #353635",
"T#	c #232922",
"U#	c #232A23",
"V#	c #262B25",
"W#	c #2B2B26",
"X#	c #202321",
"Y#	c #1E191E",
"Z#	c #1A171A",
"`#	c #1B1C1B",
" $	c #191819",
".$	c #191918",
"+$	c #262221",
"@$	c #221D1C",
"#$	c #1C1D1D",
". . . . . . . . . . . . . . . . . . . . . . . . . . . . . . . . . . . . . . . . . . . . . . . . . . . . . . . . . . . . . . . . . . . . . . . . . . . . . . . . ",
". . . . . . . . . . . . . . . . . . . . . . . . . . . . . . . . . . . . . . . . . . . . . . . . . . . . . . . . . . . . . . . . . . . . . . . . . . . . . . . . ",
". . . . . . . . . . . . . . . . . . . . . . . . . . . . . . . . . . . . . . . . . . . . . . . . . . . . . . . . . . . . + . . . . . . . . @ . . . # . $ % & * . ",
". . . . . . . . . . . . . . . . . . . . . . . . . . . . . . . . . . . . . . . . . . . . . . . . . . . . . . . . . . . . = - . . . . ; > , ' ) . . . ! ~ { ] ^ . ",
". . . . . . . . . . . . . . . . . . . . . . . . . . . . . . . . . . . . . . . . / . . . . . . . ( _ : . . . . . < [ } . | 1 2 3 4 . 5 6 7 8 9 0 a . b c d e f g ",
". . . . . . . . . . . . . . . . . . . . . . . . . . . . . . . . . . . . . . . . h i . . . . ; j k l m n . . . o p q r . s t u v w x y z A B C D E F G H I J K L ",
". . . . . . . . . . . . . . . . . . . . . . . . . . . . . . . . . . . . . . . . M N O P Q . 4 R S T U V W . . X Y Z `  ...+.@.#.$.%.&.*.=.-.U ;.>.,.'.).!.~.{.@ ",
". . . . . . . . . . . . . . . . . . . . . . . . . . . . . . . . . . . . . . . . ].^./.(.# . Q _.:.,.<.[.}.. . |.1.2.3.j ].4.5.6.7.8.9.0.a.b.c.d.e.f.g.h.i.j.k.l.",
". . . . . . . . . . . . . . . . . . . . . . . . . . . . m.n.. . . . . . o.p.g . q.r.s.. . . . t.u.v.w.x.y./ o.z.A.B.C.@ q.D.E.F.G.H.I.J.K.v.w.L.M.N.O.P.Q.R.S.p.",
". . . . . . . . . . . . . . . . . . . . . o T.. . . . . U.V.W.X.Y.. . . Z.`.o..  +.+++@+#+$+%+&+*+=+-+;+>+,+'+d.)+!+,+T. +~+{+]+^+$+%+&+*+=+-+/+(+_+:+d.)+!+,+T.",
". . . . . . . . . . . . . . . . . . . . <+[+}+. . . . |+1+2+3+4+5+. . . 6+7+8+. 9+0+a+b+c+d+e+f+g+h+i+j+k+l+m+n+o+p+q+r+9+r.s+t+H.u+e+f+g+h+i+v+w+x+y+n+o+p+q+r+",
". . . . . . . . . . . . . . . . . . . . z+A+B+. . . C+D+E+F+G+H+I+J+. . . K+L+M+N+N O+P+Q+R+S+T+U+V+W+X+w+Y+Z+`+ @.@+@T.N+N O+P+Q+R+S+T+U+V+W+X+w+Y+Z+`+ @.@+@T.",
"( . . . . . . . . . . . . . ; . . + . . @@E.#@. . . $@%@&@*@=@-@;@>@_ . . ,@'@)@!@~@{@]@^@/@(@_@:@*@=@-@<@[@}@|@1@2@3@4@!@~@{@]@^@/@(@_@:@*@=@-@<@[@}@|@1@2@3@4@",
"5@6@7@. . . . 8@9@0@a@. . . . V b@c@d@. e@f@g@h@. . i@u+j@k@l@m@n@=@o@V p@q@r@s@e@f@t@u@v@w@x@g@j@k@l@m@D y@z@A@B@C@D@s@e@f@t@u@v@w@x@g@j@k@l@m@D y@z@A@B@C@D@s@",
"E@F@G@H@I@. . J@K@L@L+. . M@N@O@P@Q@o.. E@F@R@S@T@U@V@W@X@Y@Z@`@*. #.#O@P@+#( s@E@F@R@S@T@U@V@W@X@Y@Z@`@*. #.#O@P@+#( s@E@F@R@S@T@U@V@W@X@Y@Z@`@*. #.#O@P@+#( s@",
"@###Q+$#%#&#*#=#-#;#>#,#'#)#!#> ~#{#]#Q @###^#/#(#_#:#<#[#}#|#1#2#3#4#> ~#5#s@s@@###^#/#(#_#:#<#[#}#|#1#2#3#4#> ~#5#s@s@@###^#/#(#_#:#<#[#}#|#1#2#3#4#> ~#5#s@s@",
"6#7#8#9#0#a#b#c#d#e#f#g#h#i#j#k#l#m#n#l.6#7#8#o#p#q#r#s#d#e#f#t#u#n v#k#l#w#x#n#6#7#8#o#p#q#r#s#d#e#f#t#u#n v#k#l#w#x#n#6#7#8#o#p#q#r#s#d#e#f#t#u#n v#k#l#w#x#n#",
"y#z#A#B#C#D#E#F#G#H#I#J#K#L#M#N#O#P#n#T.y#z#A#B#C#D#E#F#G#H#I#J#K#L#M#N#O#P#n#T.y#z#A#B#C#D#E#F#G#H#I#J#K#L#M#N#O#P#n#T.y#z#A#B#C#D#E#F#G#H#I#J#K#L#M#N#O#P#n#T.",
"Q#R#S#T#U#V#W#X#Y#Z#`#5  $.$+$@$#$n#T.n#Q#R#S#T#U#V#W#X#Y#Z#`#5  $.$+$@$#$n#T.n#Q#R#S#T#U#V#W#X#Y#Z#`#5  $.$+$@$#$n#T.n#Q#R#S#T#U#V#W#X#Y#Z#`#5  $.$+$@$#$n#T.n#",
"T.T.T.T.T.T.T.T.T.T.T.T.T.T.T.T.T.T.T.T.T.T.T.T.T.T.T.T.T.T.T.T.T.T.T.T.T.T.T.T.T.T.T.T.T.T.T.T.T.T.T.T.T.T.T.T.T.T.T.T.T.T.T.T.T.T.T.T.T.T.T.T.T.T.T.T.T.T.T.T."};
