/* XPM */
static char * green_small_xpm[] = {
"20 20 216 2",
"  	c #000000",
". 	c None",
"+ 	c #010301",
"@ 	c #051406",
"# 	c #000900",
"$ 	c #001100",
"% 	c #001300",
"& 	c #000700",
"* 	c #000100",
"= 	c #000800",
"- 	c #010001",
"; 	c #2C6D34",
"> 	c #2F7C37",
", 	c #2E4E36",
"' 	c #295B2F",
") 	c #001900",
"! 	c #002800",
"~ 	c #001D00",
"{ 	c #000D00",
"] 	c #000C00",
"^ 	c #010901",
"/ 	c #053C0C",
"( 	c #1B8222",
"_ 	c #26C128",
": 	c #20C223",
"< 	c #33BC34",
"[ 	c #40A545",
"} 	c #46934F",
"| 	c #236128",
"1 	c #002C00",
"2 	c #003500",
"3 	c #000001",
"4 	c #1F512A",
"5 	c #6BC663",
"6 	c #75E962",
"7 	c #32D022",
"8 	c #1FBC13",
"9 	c #0DA700",
"0 	c #11980C",
"a 	c #3A9F42",
"b 	c #6CC57B",
"c 	c #5CA467",
"d 	c #003900",
"e 	c #003800",
"f 	c #003000",
"g 	c #000500",
"h 	c #001700",
"i 	c #1A5623",
"j 	c #B6D7A9",
"k 	c #C9F3B0",
"l 	c #CEF5B3",
"m 	c #92E877",
"n 	c #4ECB40",
"o 	c #28B026",
"p 	c #159703",
"q 	c #078308",
"r 	c #1A801B",
"s 	c #67C573",
"t 	c #70B77F",
"u 	c #1A611D",
"v 	c #003300",
"w 	c #0B430F",
"x 	c #41AC47",
"y 	c #43C039",
"z 	c #75D962",
"A 	c #DBF5C4",
"B 	c #D8F5C0",
"C 	c #90D883",
"D 	c #54B64E",
"E 	c #259928",
"F 	c #138212",
"G 	c #006E00",
"H 	c #127A15",
"I 	c #58C463",
"J 	c #7CD48B",
"K 	c #19631C",
"L 	c #003100",
"M 	c #000600",
"N 	c #050706",
"O 	c #1E6A24",
"P 	c #0DA70D",
"Q 	c #2CA926",
"R 	c #5DC153",
"S 	c #9BD88E",
"T 	c #CDE7BF",
"U 	c #B5DAB1",
"V 	c #73B876",
"W 	c #3B9842",
"X 	c #19811A",
"Y 	c #016D00",
"Z 	c #007E00",
"` 	c #33B43D",
" .	c #5DCC6A",
"..	c #4D9D59",
"+.	c #002F00",
"@.	c #1A291D",
"#.	c #50C55A",
"$.	c #007500",
"%.	c #0A9508",
"&.	c #2FA428",
"*.	c #55B553",
"=.	c #88C488",
"-.	c #A3C7AD",
";.	c #A2BEBC",
">.	c #589A6B",
",.	c #1C7D27",
"'.	c #0B6D10",
").	c #2A9A30",
"!.	c #4ACF58",
"~.	c #359240",
"{.	c #0A520E",
"].	c #004600",
"^.	c #1F3F23",
"/.	c #6ACC76",
"(.	c #008300",
"_.	c #0B8C0A",
":.	c #2C952D",
"<.	c #3F9D45",
"[.	c #4E9E5B",
"}.	c #7DA8A5",
"|.	c #65998B",
"1.	c #327E4E",
"2.	c #3E9B50",
"3.	c #58D266",
"4.	c #349137",
"5.	c #055306",
"6.	c #004C00",
"7.	c #004A00",
"8.	c #003E00",
"9.	c #0E3C10",
"0.	c #59AD65",
"a.	c #329538",
"b.	c #027503",
"c.	c #007800",
"d.	c #037A04",
"e.	c #177E19",
"f.	c #25822D",
"g.	c #4F8E6E",
"h.	c #6A96A2",
"i.	c #7DB2A0",
"j.	c #9CE5A7",
"k.	c #4E9B54",
"l.	c #05570C",
"m.	c #005000",
"n.	c #004F00",
"o.	c #004B00",
"p.	c #004100",
"q.	c #002300",
"r.	c #2D6831",
"s.	c #8DE09B",
"t.	c #3B9946",
"u.	c #0C7514",
"v.	c #026D00",
"w.	c #107017",
"x.	c #227533",
"y.	c #5FA777",
"z.	c #ACEEB0",
"A.	c #79AA7A",
"B.	c #084F09",
"C.	c #005100",
"D.	c #004E00",
"E.	c #004000",
"F.	c #002900",
"G.	c #003600",
"H.	c #508E58",
"I.	c #74D181",
"J.	c #3E9C4F",
"K.	c #116F25",
"L.	c #006200",
"M.	c #006000",
"N.	c #278D2D",
"O.	c #6CD66F",
"P.	c #49964D",
"Q.	c #005200",
"R.	c #004D00",
"S.	c #004800",
"T.	c #003F00",
"U.	c #4F9958",
"V.	c #64C970",
"W.	c #429F51",
"X.	c #0D6616",
"Y.	c #228223",
"Z.	c #50C857",
"`.	c #399741",
" +	c #005300",
".+	c #005400",
"++	c #000F00",
"@+	c #003A00",
"#+	c #5FA268",
"$+	c #6ACB78",
"%+	c #4AAE54",
"&+	c #53CA5D",
"*+	c #3C9C40",
"=+	c #065807",
"-+	c #003400",
";+	c #014803",
">+	c #559960",
",+	c #74D681",
"'+	c #62C36A",
")+	c #2B762D",
"!+	c #004900",
"~+	c #002600",
"{+	c #000A00",
"]+	c #002D00",
"^+	c #003C00",
"/+	c #034303",
"(+	c #528B5A",
"_+	c #347338",
":+	c #004500",
"<+	c #002700",
"[+	c #003D00",
"}+	c #004700",
"|+	c #000300",
"1+	c #004200",
"2+	c #000400",
"3+	c #001E00",
". . . . . . . . @ # $ % & * . . . . . . ",
". . . . . = - ; > , ' ) ! ~ { ] . . . . ",
". . . ^ { / ( _ : < [ } | 1 2 1 { . . . ",
". . 3 . 4 5 6 7 8 9 0 a b c d e f { . . ",
". g h i j k l m n o p q r s t u e v { . ",
". * w x y z A B C D E F G H I J K L 1 M ",
". N O P Q R S T U V W X Y Z `  ...+.2 & ",
". @.#.$.%.&.*.=.-.;.>.,.'.).!.~.{.].d = ",
". ^./.G (._.:.<.[.}.|.1.2.3.4.5.6.7.8.# ",
". 9.0.a.b.c.d.e.f.g.h.i.j.k.l.m.n.o.p.# ",
". q.r.s.t.u.G v.w.x.y.z.A.B.C.m.D.o.E.# ",
". F.G.H.I.J.K.L.M.N.O.P.p.Q.Q.C.R.S.8.# ",
". F.2 T.U.V.W.X.Y.Z.`.S. +.+C.n.6.].d = ",
". ++@+T.S.#+$+%+&+*+=+ +.+Q.m.D.7.p.-+& ",
". . % T.].;+>+,+'+)+C.m.n.n.R.!+].G.~+g ",
". . {+]+^+]./+(+_+7.D.n.6.6.!+:+e <+g . ",
". . . M +.8.p.G.[+!+7.!+7.}+p.2 <+|+. . ",
". . . . {+% d E.p.E.].:+1+^+v <+2+. . . ",
". . . . . . # M 3+f {+{+# # & g . . . . ",
". . . . . . . . . . . . . . . . . . . . "};
