/* XPM */
static char * purple_small_xpm[] = {
"20 20 321 2",
"  	c #000000",
". 	c None",
"+ 	c #020000",
"@ 	c #09000A",
"# 	c #250019",
"$ 	c #32002C",
"% 	c #3C0031",
"& 	c #440039",
"* 	c #49003B",
"= 	c #440038",
"- 	c #420037",
"; 	c #3D0034",
"> 	c #34002E",
", 	c #2A0022",
"' 	c #12000B",
") 	c #0C0002",
"! 	c #0C000A",
"~ 	c #49003D",
"{ 	c #63064F",
"] 	c #822775",
"^ 	c #7E2A73",
"/ 	c #711D6D",
"( 	c #AD3F9A",
"_ 	c #B551A1",
": 	c #893D7A",
"< 	c #590246",
"[ 	c #5A064B",
"} 	c #190016",
"| 	c #030003",
"1 	c #050007",
"2 	c #000001",
"3 	c #110010",
"4 	c #46002F",
"5 	c #8D3982",
"6 	c #78257B",
"7 	c #873492",
"8 	c #7F2C8C",
"9 	c #752286",
"0 	c #AD46AF",
"a 	c #AB49AF",
"b 	c #A564B1",
"c 	c #965499",
"d 	c #710B58",
"e 	c #620A53",
"f 	c #1D0019",
"g 	c #030004",
"h 	c #0F000F",
"i 	c #46002C",
"j 	c #9F76A6",
"k 	c #7B449E",
"l 	c #8456B3",
"m 	c #803397",
"n 	c #81238D",
"o 	c #821885",
"p 	c #780C78",
"q 	c #710C75",
"r 	c #751A83",
"s 	c #833D99",
"t 	c #9D68B1",
"u 	c #7E0E67",
"v 	c #5E1251",
"w 	c #1D0018",
"x 	c #0E000B",
"y 	c #52003C",
"z 	c #98679B",
"A 	c #9188D5",
"B 	c #9D8FDF",
"C 	c #A687D9",
"D 	c #A96BC3",
"E 	c #A643A9",
"F 	c #A73AA4",
"G 	c #A02B96",
"H 	c #941689",
"I 	c #871481",
"J 	c #7A117F",
"K 	c #7A1F86",
"L 	c #7E619A",
"M 	c #7A0C60",
"N 	c #630A54",
"O 	c #822372",
"P 	c #864DA8",
"Q 	c #8C4AAB",
"R 	c #A159B7",
"S 	c #C283D4",
"T 	c #E2D0FD",
"U 	c #E09BE7",
"V 	c #DA6FCF",
"W 	c #CD50B8",
"X 	c #B92FA0",
"Y 	c #A61F94",
"Z 	c #921485",
"` 	c #7E127B",
" .	c #832688",
"..	c #9B62AA",
"+.	c #6F0354",
"@.	c #600751",
"#.	c #0F000C",
"$.	c #650254",
"%.	c #85307E",
"&.	c #C73FC5",
"*.	c #B83AB3",
"=.	c #B95ABD",
"-.	c #DD87DB",
";.	c #FDDCFF",
">.	c #FFDFFF",
",.	c #FFB9F7",
"'.	c #FA96EA",
").	c #E455C2",
"!.	c #C535A8",
"~.	c #AB1E95",
"{.	c #911386",
"].	c #842788",
"^.	c #8F3F99",
"/.	c #842575",
"(.	c #6B0C5A",
"_.	c #10000D",
":.	c #6D0A5F",
"<.	c #AC39A3",
"[.	c #FD24DB",
"}.	c #DC2FBC",
"|.	c #CC51BB",
"1.	c #F387E2",
"2.	c #FFD7FF",
"3.	c #FFFEFF",
"4.	c #FFFCFF",
"5.	c #FFC5FE",
"6.	c #FD66DB",
"7.	c #E850C1",
"8.	c #C536A9",
"9.	c #A42295",
"0.	c #8C238B",
"a.	c #8A3590",
"b.	c #8D2B83",
"c.	c #781263",
"d.	c #12030F",
"e.	c #741B67",
"f.	c #9D379C",
"g.	c #BB11A0",
"h.	c #BD189C",
"i.	c #D842B5",
"j.	c #EF5DCB",
"k.	c #D56EC6",
"l.	c #FEEDFF",
"m.	c #FFFFFF",
"n.	c #FEF8FE",
"o.	c #FFDCFB",
"p.	c #FD99F0",
"q.	c #E25BC9",
"r.	c #B72DA1",
"s.	c #92278E",
"t.	c #883690",
"u.	c #8D2A85",
"v.	c #82106B",
"w.	c #130211",
"x.	c #79216E",
"y.	c #913997",
"z.	c #8D0A81",
"A.	c #B21A94",
"B.	c #E02CAE",
"C.	c #F542C3",
"D.	c #C32FA8",
"E.	c #E2A2DA",
"F.	c #FFF0FF",
"G.	c #FFC8FC",
"H.	c #F470E0",
"I.	c #CF4FBF",
"J.	c #9B349D",
"K.	c #843992",
"L.	c #8D2989",
"M.	c #87106D",
"N.	c #140211",
"O.	c #78226B",
"P.	c #93439C",
"Q.	c #911387",
"R.	c #B61294",
"S.	c #E51BA9",
"T.	c #FE39C9",
"U.	c #FF60ED",
"V.	c #FF8DFE",
"W.	c #FEB3FF",
"X.	c #FEC8FE",
"Y.	c #FEF4FF",
"Z.	c #FFEEFF",
"`.	c #FFB0F7",
" +	c #DA67D0",
".+	c #984AA5",
"++	c #894198",
"@+	c #8B2884",
"#+	c #84106B",
"$+	c #6E145E",
"%+	c #8A3F8E",
"&+	c #992897",
"*+	c #B91799",
"=+	c #E61AAC",
"-+	c #FE23C3",
";+	c #FF2AD4",
">+	c #FF43EE",
",+	c #FF6AFE",
"'+	c #FE94FE",
")+	c #FEE0FE",
"!+	c #D498E5",
"~+	c #926AB3",
"{+	c #8E469D",
"]+	c #8B207A",
"^+	c #7A1367",
"/+	c #60004E",
"(+	c #81347E",
"_+	c #9652A9",
":+	c #B5259F",
"<+	c #F21AB6",
"[+	c #FE1EC4",
"}+	c #FF1CD2",
"|+	c #FF29E3",
"1+	c #FF4DFA",
"2+	c #FE76FF",
"3+	c #FFB1FF",
"4+	c #E9E4F5",
"5+	c #B1A8DE",
"6+	c #A095D3",
"7+	c #9159A2",
"8+	c #840C69",
"9+	c #6F0D5E",
"0+	c #11000E",
"a+	c #58004B",
"b+	c #6C0757",
"c+	c #8C529C",
"d+	c #9C4AA6",
"e+	c #B434A5",
"f+	c #FF31D7",
"g+	c #FF25E6",
"h+	c #FF1DEE",
"i+	c #FF2FFE",
"j+	c #FF48FF",
"k+	c #F86FFB",
"l+	c #AF86C0",
"m+	c #A47DC2",
"n+	c #9C7DC3",
"o+	c #A085C3",
"p+	c #8E247C",
"q+	c #751261",
"r+	c #640856",
"s+	c #0E000C",
"t+	c #610752",
"u+	c #761562",
"v+	c #9052A5",
"w+	c #873F95",
"x+	c #A03CA1",
"y+	c #A031A0",
"z+	c #9E299B",
"A+	c #9D299E",
"B+	c #9E2AA0",
"C+	c #95379E",
"D+	c #7F3C92",
"E+	c #8D59AB",
"F+	c #9565AF",
"G+	c #922E81",
"H+	c #7B1166",
"I+	c #680F58",
"J+	c #20001A",
"K+	c #160013",
"L+	c #620753",
"M+	c #730D5C",
"N+	c #882E87",
"O+	c #863F97",
"P+	c #843D96",
"Q+	c #81358E",
"R+	c #7D2D87",
"S+	c #7D2987",
"T+	c #80308C",
"U+	c #873792",
"V+	c #863588",
"W+	c #8D257A",
"X+	c #7B1067",
"Y+	c #660F56",
"Z+	c #4B003E",
"`+	c #0A0008",
" @	c #410036",
".@	c #5C064D",
"+@	c #700E59",
"@@	c #852E80",
"#@	c #892C86",
"$@	c #8B2C87",
"%@	c #8C2986",
"&@	c #8D2685",
"*@	c #8B2483",
"=@	c #8D1D7C",
"-@	c #8A126F",
";@	c #771063",
">@	c #690E59",
",@	c #4C003E",
"'@	c #0B000A",
")@	c #010001",
"!@	c #3D0032",
"~@	c #5A074B",
"{@	c #6D0658",
"]@	c #72115C",
"^@	c #7D1365",
"/@	c #85196D",
"(@	c #861A6F",
"_@	c #80186A",
":@	c #741361",
"<@	c #6E0C5E",
"[@	c #680758",
"}@	c #20001B",
"|@	c #11000D",
"1@	c #060007",
"2@	c #070005",
"3@	c #0D000B",
"4@	c #1C0017",
"5@	c #58034A",
"6@	c #5D034D",
"7@	c #5D034E",
"8@	c #5B034B",
"9@	c #57034B",
"0@	c #290022",
"a@	c #070006",
"b@	c #190015",
"c@	c #1B0015",
"d@	c #1C0015",
"e@	c #180014",
"f@	c #0C0008",
". . . . . # $ % & * = - ; > , . . . . . ",
". . . . ! ~ { ] ^ / ( _ : < [ } . . . . ",
". . . 3 4 5 6 7 8 9 0 a b c d e f . . . ",
". . h i j k l m n o p q r s t u v w . . ",
". x y z A B C D E F G H I J K L M N f . ",
". w O P Q R S T U V W X Y Z `  ...+.@.. ",
". $.%.&.*.=.-.;.>.,.'.).!.~.{.].^./.(._.",
". :.<.[.}.|.1.2.3.4.5.6.7.8.9.0.a.b.c.d.",
". e.f.g.h.i.j.k.l.m.n.o.p.q.r.s.t.u.v.w.",
". x.y.z.A.B.C.D.E.F.n.m.G.H.I.J.K.L.M.N.",
". O.P.Q.R.S.T.U.V.W.X.Y.Z.`. +.+++@+#+w.",
". $+%+&+*+=+-+;+>+,+'+)+m.Z.!+~+{+]+^+d.",
". /+(+_+:+<+[+}+|+1+2+3+Z.4+5+6+7+8+9+0+",
". a+b+c+d+e+f+g+h+i+j+k+l+m+n+o+p+q+r+_.",
". s+t+u+v+w+x+y+z+A+B+C+D+E+F+G+H+I+J+. ",
". . K+L+M+N+O+P+Q+R+S+T+U+V+W+X+Y+Z+_.. ",
". . `+ @.@+@@@#@$@%@&@*@=@-@;@>@,@'@. . ",
". . . | !@~@{@]@^@/@(@_@:@<@[@}@|@. . . ",
". . . . 2@3@4@5@5@6@7@8@9@0@s+. . . . . ",
". . . . . . . a@b@c@d@e@f@. . . . . . . "};
