/* XPM */
static char * red_small_xpm[] = {
"20 20 251 2",
"  	c #000000",
". 	c None",
"+ 	c #291D1D",
"@ 	c #2B2929",
"# 	c #3A2424",
"$ 	c #5F2133",
"% 	c #9B4061",
"& 	c #AD3C6A",
"* 	c #9A6A87",
"= 	c #BE84A1",
"- 	c #3C0000",
"; 	c #2B0000",
"> 	c #0B0000",
", 	c #362B2B",
"' 	c #584D4D",
") 	c #A05C68",
"! 	c #DD5387",
"~ 	c #E6447E",
"{ 	c #E9336A",
"] 	c #EB2163",
"^ 	c #E83164",
"/ 	c #DE1838",
"( 	c #D86495",
"_ 	c #84586C",
": 	c #4F2B2B",
"< 	c #DB7B9B",
"[ 	c #F483AE",
"} 	c #F19AC8",
"| 	c #EFA5C2",
"1 	c #F36DAF",
"2 	c #F53387",
"3 	c #F51271",
"4 	c #F50B60",
"5 	c #DC0021",
"6 	c #B60000",
"7 	c #EEAAC0",
"8 	c #684D5F",
"9 	c #290000",
"0 	c #B88292",
"a 	c #F5F5F5",
"b 	c #F5C8E4",
"c 	c #F5CAE9",
"d 	c #F4D7EB",
"e 	c #F0C3D4",
"f 	c #F2A1C4",
"g 	c #F561A3",
"h 	c #F51D79",
"i 	c #F01D68",
"j 	c #E0003E",
"k 	c #B20000",
"l 	c #C30B0B",
"m 	c #DF839F",
"n 	c #1D0000",
"o 	c #B7295B",
"p 	c #EE8AB8",
"q 	c #F3BED6",
"r 	c #F4DDE6",
"s 	c #F5F1F2",
"t 	c #F5F3F4",
"u 	c #F4E2EA",
"v 	c #F0C1D3",
"w 	c #F294BC",
"x 	c #F44489",
"y 	c #F50B68",
"z 	c #DE0038",
"A 	c #B7000B",
"B 	c #B30000",
"C 	c #E27085",
"D 	c #64404F",
"E 	c #36000B",
"F 	c #560029",
"G 	c #CB4069",
"H 	c #E67F9A",
"I 	c #E999AC",
"J 	c #EFC7D0",
"K 	c #F3E2E6",
"L 	c #F4E8EB",
"M 	c #F4EBED",
"N 	c #F3D5DE",
"O 	c #F0B2C7",
"P 	c #F274A4",
"Q 	c #F13A76",
"R 	c #E00042",
"S 	c #BE1200",
"T 	c #B00000",
"U 	c #E20B3A",
"V 	c #8C0B46",
"W 	c #380000",
"X 	c #BD2975",
"Y 	c #DD4877",
"Z 	c #E8839F",
"` 	c #E88CA3",
" .	c #E893A8",
"..	c #EA99AC",
"+.	c #ECA0B2",
"@.	c #EFB2C0",
"#.	c #F2B8C5",
"$.	c #F0ACBE",
"%.	c #EF86A8",
"&.	c #F04F80",
"*.	c #EF0B4F",
"=.	c #CD0B29",
"-.	c #B40000",
";.	c #E50B31",
">.	c #AC2153",
",.	c #C41D74",
"'.	c #D3426B",
").	c #E27B96",
"!.	c #DF778F",
"~.	c #D86476",
"{.	c #DF657D",
"].	c #E36C86",
"^.	c #EA8DA3",
"/.	c #ED96AA",
"(.	c #EF8AA1",
"_.	c #ED7090",
":.	c #EC4872",
"<.	c #F50048",
"[.	c #E00B36",
"}.	c #AC0B00",
"|.	c #E20B36",
"1.	c #B70B5C",
"2.	c #2E000B",
"3.	c #BD4684",
"4.	c #CB426C",
"5.	c #CC5669",
"6.	c #C84453",
"7.	c #BD292E",
"8.	c #C8122E",
"9.	c #DD3C59",
"0.	c #E15975",
"a.	c #E67691",
"b.	c #E4607B",
"c.	c #DF3C5F",
"d.	c #DB3E5D",
"e.	c #E91840",
"f.	c #E7244D",
"g.	c #B6000B",
"h.	c #D60036",
"i.	c #BF0B59",
"j.	c #180B0B",
"k.	c #D69CB9",
"l.	c #DB7D95",
"m.	c #C00000",
"n.	c #C0000B",
"o.	c #BB0B0B",
"p.	c #B80B18",
"q.	c #BF1221",
"r.	c #CC2138",
"s.	c #D83652",
"t.	c #D53850",
"u.	c #CD1D33",
"v.	c #D73150",
"w.	c #D22B42",
"x.	c #EA124A",
"y.	c #E00021",
"z.	c #D80021",
"A.	c #B50053",
"B.	c #21000B",
"C.	c #C2729D",
"D.	c #E57DA4",
"E.	c #D43A50",
"F.	c #BC0000",
"G.	c #B80000",
"H.	c #B8001D",
"I.	c #C10B1D",
"J.	c #C31221",
"K.	c #BD0B1D",
"L.	c #BF1824",
"M.	c #D01238",
"N.	c #D8000B",
"O.	c #F00000",
"P.	c #E6316C",
"Q.	c #A50038",
"R.	c #360000",
"S.	c #CD8F9E",
"T.	c #DB5975",
"U.	c #D20012",
"V.	c #BA0000",
"W.	c #B50000",
"X.	c #B7001D",
"Y.	c #BB1221",
"Z.	c #BA1212",
"`.	c #C3000B",
" +	c #D00000",
".+	c #F0A0B7",
"++	c #784453",
"@+	c #420000",
"#+	c #8A667A",
"$+	c #F5E6EC",
"%+	c #EC9BB2",
"&+	c #DB587E",
"*+	c #C41D2E",
"=+	c #A60000",
"-+	c #EE0076",
";+	c #F5EBEF",
">+	c #BD6578",
",+	c #4A0000",
"'+	c #44000B",
")+	c #401212",
"!+	c #DFD7DB",
"~+	c #EFEEEF",
"{+	c #F1E9EB",
"]+	c #EDC9D4",
"^+	c #E16192",
"/+	c #CC0036",
"(+	c #EC0075",
"_+	c #DF248A",
":+	c #B80B4F",
"<+	c #640000",
"[+	c #4A000B",
"}+	c #460000",
"|+	c #712936",
"1+	c #BA9DA1",
"2+	c #EADBE0",
"3+	c #F2CDDC",
"4+	c #F5D1E4",
"5+	c #F381B9",
"6+	c #F569B5",
"7+	c #E950A0",
"8+	c #A0003A",
"9+	c #6A0012",
"0+	c #610012",
"a+	c #0B0B00",
"b+	c #240000",
"c+	c #4F000B",
"d+	c #440000",
"e+	c #460B12",
"f+	c #906669",
"g+	c #AF747B",
"h+	c #AD4058",
"i+	c #E08EAD",
"j+	c #CC5283",
"k+	c #A6214A",
"l+	c #6E0012",
"m+	c #6A002B",
"n+	c #380B0B",
"o+	c #3A0B0B",
"p+	c #4D0018",
"q+	c #4B0012",
"r+	c #530000",
"s+	c #4B0000",
"t+	c #6E0B2E",
"u+	c #61001D",
"v+	c #630012",
"w+	c #5D0021",
"x+	c #441218",
"y+	c #000B00",
"z+	c #330000",
"A+	c #3E0B0B",
"B+	c #240B00",
". . . . . . . . . . . . . . . . . . . . ",
". . . . . . . . . . . . . . . . . . . . ",
". . . . . . . + @ # $ % & * = - ; . . . ",
". . . . . > , ' ) ! ~ { ] ^ / ( _ . . . ",
". . . . . : < [ } | 1 2 3 4 5 6 7 8 . . ",
". . . 9 0 a b c d e f g h i j k l m n . ",
". . > o p q r s t u v w x y z A B C D . ",
". E F G H I J K L M N O P Q R S T U V . ",
". W X Y Z `  ...+.@.#.$.%.&.*.=.-.;.>.. ",
". 9 ,.'.).!.~.{.].^./.(._.:.<.[.}.|.1.. ",
". 2.3.4.5.6.7.8.9.0.a.b.c.d.e.f.g.h.i.> ",
". j.k.l.m.n.o.p.q.r.s.t.u.v.w.x.y.z.A.> ",
". B.C.D.E.F.6 G.g.H.I.J.K.L.M.N.O.P.Q.. ",
". W R.S.a T.U.V.T T W.X.Y.Z.`. +.+a ++. ",
". . @+. #+a $+%+&+*+T k -.T =+-+;+>+,+. ",
". . B.'+; )+!+~+{+]+^+/+`.F.(+_+:+<+E . ",
". . . j.[+}+; |+1+2+3+4+5+6+7+8+9+0+a+. ",
". . . . > b+c+d+e+f+g+h+i+j+k+l+m+n+. . ",
". . . . . . a+o+p+q+r+s+t+u+v+w+x+. . . ",
". . . . . . . . . y+y+y+z+- A+B+. . . . "};
