/* XPM */
static char * trap_left_small_xpm[] = {
"20 20 170 2",
"  	c #000000",
". 	c #1F1F1E",
"+ 	c #21221B",
"@ 	c #353932",
"# 	c #403F40",
"$ 	c #4B4A4B",
"% 	c #585959",
"& 	c #616161",
"* 	c #676767",
"= 	c #5A5B5A",
"- 	c #40403F",
"; 	c #272723",
"> 	c #0E0E0F",
", 	c None",
"' 	c #22221C",
") 	c #4D4B4C",
"! 	c #747372",
"~ 	c #8F908F",
"{ 	c #9A9B9B",
"] 	c #A9AAAA",
"^ 	c #ADADAD",
"/ 	c #989796",
"( 	c #525252",
"_ 	c #1C1C1C",
": 	c #090909",
"< 	c #0A0A0A",
"[ 	c #464645",
"} 	c #828080",
"| 	c #B3B3B2",
"1 	c #C7C7C7",
"2 	c #C2C2C3",
"3 	c #B1B1B1",
"4 	c #B4B4B3",
"5 	c #727371",
"6 	c #161715",
"7 	c #070707",
"8 	c #565553",
"9 	c #989898",
"0 	c #CDCDCD",
"a 	c #CFCFCE",
"b 	c #9EA09D",
"c 	c #8A8B89",
"d 	c #7A7B7A",
"e 	c #353535",
"f 	c #040504",
"g 	c #595B5B",
"h 	c #9D9D9D",
"i 	c #BCBCBB",
"j 	c #838582",
"k 	c #888A86",
"l 	c #5B5D5A",
"m 	c #10100D",
"n 	c #646363",
"o 	c #A0A0A0",
"p 	c #B6B6B5",
"q 	c #949795",
"r 	c #8D8E8D",
"s 	c #8C8D8C",
"t 	c #5D5F5C",
"u 	c #1C1B1C",
"v 	c #676666",
"w 	c #A3A3A3",
"x 	c #BCBCBC",
"y 	c #A8A9A8",
"z 	c #8E908E",
"A 	c #8A8C89",
"B 	c #7B7C7A",
"C 	c #62625F",
"D 	c #252523",
"E 	c #646463",
"F 	c #A3A5A4",
"G 	c #BFBFBE",
"H 	c #ACADAC",
"I 	c #878988",
"J 	c #797B79",
"K 	c #727470",
"L 	c #878784",
"M 	c #797A77",
"N 	c #353434",
"O 	c #626162",
"P 	c #9FA0A0",
"Q 	c #979A97",
"R 	c #7D807D",
"S 	c #707470",
"T 	c #676C67",
"U 	c #7D827B",
"V 	c #828680",
"W 	c #4A4E4C",
"X 	c #101000",
"Y 	c #646464",
"Z 	c #9A9B9A",
"` 	c #969594",
" .	c #797D79",
"..	c #797C7A",
"+.	c #7D7F7C",
"@.	c #6E746E",
"#.	c #797E78",
"$.	c #5D615B",
"%.	c #2E332E",
"&.	c #141414",
"*.	c #6B6A69",
"=.	c #A4A4A4",
"-.	c #989A97",
";.	c #717571",
">.	c #797C77",
",.	c #656963",
"'.	c #61635F",
").	c #303330",
"!.	c #6D6D6C",
"~.	c #A4A5A4",
"{.	c #8A8D8A",
"].	c #6B726A",
"^.	c #636963",
"/.	c #686E65",
"(.	c #4F524D",
"_.	c #1E1E1E",
":.	c #6B6B6C",
"<.	c #9E9F9E",
"[.	c #767A76",
"}.	c #505850",
"|.	c #4D524B",
"1.	c #585D56",
"2.	c #363732",
"3.	c #080709",
"4.	c #666766",
"5.	c #959595",
"6.	c #6D726E",
"7.	c #4A534B",
"8.	c #3E4339",
"9.	c #40433D",
"0.	c #191618",
"a.	c #616261",
"b.	c #898A88",
"c.	c #686D6A",
"d.	c #5B645C",
"e.	c #424940",
"f.	c #343434",
"g.	c #000C00",
"h.	c #606260",
"i.	c #828382",
"j.	c #646A63",
"k.	c #59605A",
"l.	c #525652",
"m.	c #454C44",
"n.	c #110E10",
"o.	c #595859",
"p.	c #848585",
"q.	c #676C68",
"r.	c #576058",
"s.	c #485247",
"t.	c #51594E",
"u.	c #2A2F29",
"v.	c #383C3C",
"w.	c #656665",
"x.	c #585C59",
"y.	c #3F463E",
"z.	c #353F35",
"A.	c #424840",
"B.	c #3E423C",
"C.	c #10120D",
"D.	c #232424",
"E.	c #2D272D",
"F.	c #353635",
"G.	c #232922",
"H.	c #232A23",
"I.	c #262B25",
"J.	c #2B2B26",
"K.	c #0F100F",
"L.	c #222222",
"M.	c #232323",
". + @ # $ % & * = - ; > , , , , , , , , ",
"' ) ! ~ { ] ^ / ( _ : < , , , , , , , , ",
"[ } | 1 2 3 4 5 6 7 , , , , , , , , , , ",
"8 9 0 a b c d e f , , , , , , , , , , , ",
"g h i h j k l m , , , , , , , , , , , , ",
"n o p q r s t u , , , , , , , , , , , , ",
"v w x y z A B C D 7 , , , , , , , , , , ",
"E F G H I J K L M N , , , , , , , , , , ",
"O P y Q R S T U V W X , , , , , , , , , ",
"Y Z `  ...+.@.#.$.%.&., , , , , , , , , ",
"*.=.-.;.S >.,.'.)., , , , , , , , , , , ",
"!.~.{.].^./.(._., , , , , , , , , , , , ",
":.<.[.}.|.1.2.3., , , , , , , , , , , , ",
"4.5.6.7.8.9.0., , , , , , , , , , , , , ",
"a.b.c.d.e.f.g., , , , , , , , , , , , , ",
"h.i.j.k.l.m.n., , , , , , , , , , , , , ",
"o.p.q.r.s.t.u., , , , , , , , , , , , , ",
"v.w.x.y.z.A.B.C., , , , , , , , , , , , ",
"D.E.F.G.H.I.J.K., , , , , , , , , , , , ",
"L.L.L.L.L.L.M.&., , , , , , , , , , , , "};
