/* XPM */
static char * trap_right_small_xpm[] = {
"20 20 190 2",
"  	c #000000",
". 	c None",
"+ 	c #121313",
"@ 	c #151515",
"# 	c #30302F",
"$ 	c #403F3F",
"% 	c #2F2E2E",
"& 	c #1E1E1D",
"* 	c #212121",
"= 	c #212221",
"- 	c #040404",
"; 	c #1C1C1A",
"> 	c #474746",
", 	c #7C7B7B",
"' 	c #8D8D8B",
") 	c #898889",
"! 	c #605D5C",
"~ 	c #272625",
"{ 	c #232223",
"] 	c #030304",
"^ 	c #2C2D2B",
"/ 	c #676764",
"( 	c #9C9B98",
"_ 	c #A4A3A1",
": 	c #9A9A98",
"< 	c #858482",
"[ 	c #6F6F6D",
"} 	c #535050",
"| 	c #262526",
"1 	c #202020",
"2 	c #151612",
"3 	c #555250",
"4 	c #838080",
"5 	c #8A8A88",
"6 	c #797774",
"7 	c #797876",
"8 	c #625F5D",
"9 	c #625E5E",
"0 	c #4B4A47",
"a 	c #1F211F",
"b 	c #1F1F1F",
"c 	c #191A1A",
"d 	c #6C6A66",
"e 	c #8C8C88",
"f 	c #8D8B89",
"g 	c #747470",
"h 	c #807E7B",
"i 	c #666662",
"j 	c #5C5C58",
"k 	c #413F39",
"l 	c #212120",
"m 	c #050505",
"n 	c #393938",
"o 	c #8F8E8A",
"p 	c #999895",
"q 	c #878582",
"r 	c #8A8884",
"s 	c #73726F",
"t 	c #706C69",
"u 	c #48433F",
"v 	c #201E1C",
"w 	c #0A0A0A",
"x 	c #6B6969",
"y 	c #A8A5A2",
"z 	c #9A9996",
"A 	c #9D9B98",
"B 	c #94908D",
"C 	c #908D8B",
"D 	c #676563",
"E 	c #383433",
"F 	c #232222",
"G 	c #393838",
"H 	c #999692",
"I 	c #A6A49F",
"J 	c #A6A29E",
"K 	c #9D9996",
"L 	c #999693",
"M 	c #767473",
"N 	c #484948",
"O 	c #252525",
"P 	c #232424",
"Q 	c #8E8D89",
"R 	c #B8B4B0",
"S 	c #B4B1AD",
"T 	c #A8A3A0",
"U 	c #9B9896",
"V 	c #706D6B",
"W 	c #423D3D",
"X 	c #242323",
"Y 	c #3B3A35",
"Z 	c #9D9C99",
"` 	c #BDBAB6",
" .	c #C0BCB9",
"..	c #B1AEAB",
"+.	c #A3A09D",
"@.	c #706E6C",
"#.	c #383837",
"$.	c #222222",
"%.	c #626161",
"&.	c #AAA9A4",
"*.	c #AEACA7",
"=.	c #B3B1AD",
"-.	c #A5A1A0",
";.	c #6B6A67",
">.	c #373733",
",.	c #232322",
"'.	c #0E0E0E",
").	c #484847",
"!.	c #A3A09C",
"~.	c #B3B3AE",
"{.	c #A09E9A",
"].	c #A6A39F",
"^.	c #989592",
"/.	c #969390",
"(.	c #6A6968",
"_.	c #353432",
":.	c #1F1F20",
"<.	c #71716E",
"[.	c #A19E9C",
"}.	c #A4A29E",
"|.	c #93918F",
"1.	c #94938F",
"2.	c #868380",
"3.	c #7E7B79",
"4.	c #585755",
"5.	c #282722",
"6.	c #20201E",
"7.	c #111210",
"8.	c #515250",
"9.	c #7D7D7A",
"0.	c #8E8D8A",
"a.	c #93938F",
"b.	c #7F7F7B",
"c.	c #787875",
"d.	c #6A6967",
"e.	c #686562",
"f.	c #413C3A",
"g.	c #1D1A19",
"h.	c #060506",
"i.	c #373A36",
"j.	c #696C67",
"k.	c #777974",
"l.	c #7C7A75",
"m.	c #7D7E7A",
"n.	c #686965",
"o.	c #5C5D5A",
"p.	c #454541",
"q.	c #474541",
"r.	c #2A2828",
"s.	c #181818",
"t.	c #010101",
"u.	c #2A2B2A",
"v.	c #636A63",
"w.	c #6A6E66",
"x.	c #696D68",
"y.	c #5D5E5A",
"z.	c #444742",
"A.	c #464841",
"B.	c #333333",
"C.	c #272824",
"D.	c #222323",
"E.	c #0D0F0D",
"F.	c #3C413C",
"G.	c #5A5E58",
"H.	c #585C57",
"I.	c #4C4E4B",
"J.	c #3A3B38",
"K.	c #3E3D3B",
"L.	c #353533",
"M.	c #222921",
"N.	c #1F2120",
"O.	c #030203",
"P.	c #010301",
"Q.	c #232422",
"R.	c #282924",
"S.	c #211E1E",
"T.	c #22201B",
"U.	c #252620",
"V.	c #1C1E1D",
"W.	c #1B1A1B",
"X.	c #020202",
"Y.	c #1C1C1B",
"Z.	c #1B1A1A",
"`.	c #191918",
" +	c #262221",
".+	c #221D1C",
"++	c #1C1D1D",
"@+	c #030303",
"#+	c #1D1D1D",
"$+	c #232323",
". . . . . . . . . . . + . @ # $ % & * = ",
". . . . . . . . . . - ; > , ' ) ! ~ { = ",
". . . . . . . . . ] ^ / ( _ : < [ } | 1 ",
". . . . . . . . . 2 3 4 5 6 7 8 9 0 a b ",
". . . . . . . . . c d e f g h i j k l * ",
". . . . . . . . . m n o p q r s t u v 1 ",
". . . . . . . . . . w x y z A B C D E F ",
". . . . . . . . . . . G H I J K L M N O ",
". . . . . . . . . . . P Q R S T U V W X ",
". . . . . . . . . . . Y Z `  ...+.@.#.$.",
". . . . . . . . . . $.%.&.*.=.y -.;.>.,.",
". . . . . . . . . '.).!.~.{.].^./.(._.$.",
". . . . . . . . . :.<.[.}.|.1.2.3.4.5.6.",
". . . . . . . . 7.8.9.0.a.b.c.d.e.f.g.1 ",
". . . . . . . h.i.j.k.l.m.n.o.p.q.r.s.1 ",
". . . . . . . t.u.v.w.x.y.z.A.B.C.D.1 1 ",
". . . . . . . . E.F.G.H.I.J.K.L.M.N.b * ",
". . . . . . . . O.P.Q.R.S.T.R.U.V.W.* $.",
". . . . . . . . . . X.Y.Z.`. +.+++* $.* ",
". . . . . . . . . . . @+#+$+$.$.$.$.$.$."};
