/* XPM */
static char * wall_small_xpm[] = {
"20 20 362 2",
"  	c None",
". 	c #1F1F1D",
"+ 	c #25261F",
"@ 	c #363933",
"# 	c #414040",
"$ 	c #4C4C4C",
"% 	c #595959",
"& 	c #616160",
"* 	c #656665",
"= 	c #646464",
"- 	c #636362",
"; 	c #646461",
"> 	c #676665",
", 	c #636464",
"' 	c #535254",
") 	c #464444",
"! 	c #403D3E",
"~ 	c #2E2D2D",
"{ 	c #212120",
"] 	c #202020",
"^ 	c #292924",
"/ 	c #4B4A49",
"( 	c #6F6F6D",
"_ 	c #858685",
": 	c #919191",
"< 	c #9C9D9D",
"[ 	c #9F9F9F",
"} 	c #9E9E9D",
"| 	c #999898",
"1 	c #959595",
"2 	c #90908F",
"3 	c #959493",
"4 	c #949392",
"5 	c #8A8A89",
"6 	c #838282",
"7 	c #797878",
"8 	c #555352",
"9 	c #2D2C2B",
"0 	c #222222",
"a 	c #4A4A48",
"b 	c #7C7B7B",
"c 	c #A8A8A8",
"d 	c #BABABA",
"e 	c #B6B6B6",
"f 	c #ADADAD",
"g 	c #AFAFAE",
"h 	c #A6A6A5",
"i 	c #989897",
"j 	c #969695",
"k 	c #9A9A98",
"l 	c #9F9F9D",
"m 	c #A09F9C",
"n 	c #999896",
"o 	c #929290",
"p 	c #7F7E7D",
"q 	c #696866",
"r 	c #494647",
"s 	c #272627",
"t 	c #5D5D5B",
"u 	c #979797",
"v 	c #C2C2C2",
"w 	c #C2C2C1",
"x 	c #A0A19F",
"y 	c #8F908E",
"z 	c #90918F",
"A 	c #878885",
"B 	c #787876",
"C 	c #787675",
"D 	c #7E7B79",
"E 	c #888785",
"F 	c #8A8987",
"G 	c #7F7D7A",
"H 	c #7C7B78",
"I 	c #676562",
"J 	c #625F5E",
"K 	c #474744",
"L 	c #242524",
"M 	c #1F1F1F",
"N 	c #626464",
"O 	c #9B9B9B",
"P 	c #B6B7B6",
"Q 	c #9FA09F",
"R 	c #888987",
"S 	c #878986",
"T 	c #818280",
"U 	c #7B7C78",
"V 	c #72746F",
"W 	c #74746F",
"X 	c #797875",
"Y 	c #888884",
"Z 	c #878684",
"` 	c #777773",
" .	c #656461",
"..	c #5B5A56",
"+.	c #3F3E3A",
"@.	c #242523",
"#.	c #6C6B6B",
"$.	c #9E9E9E",
"%.	c #AEAFAE",
"&.	c #959795",
"*.	c #8D8E8D",
"=.	c #888988",
"-.	c #777774",
";.	c #747672",
">.	c #727570",
",.	c #7E7F7B",
"'.	c #888783",
").	c #92918D",
"!.	c #93918E",
"~.	c #878582",
"{.	c #878581",
"].	c #73716E",
"^.	c #6A6663",
"/.	c #46423E",
"(.	c #242321",
"_.	c #6F6E6E",
":.	c #A1A1A1",
"<.	c #B4B5B4",
"[.	c #A1A3A2",
"}.	c #8E8F8E",
"|.	c #7D7E7B",
"1.	c #7E807B",
"2.	c #83837F",
"3.	c #8E8E8A",
"4.	c #999995",
"5.	c #A4A29F",
"6.	c #A09F9B",
"7.	c #999894",
"8.	c #9A9895",
"9.	c #908C8A",
"0.	c #878481",
"a.	c #5F5C5B",
"b.	c #363332",
"c.	c #222121",
"d.	c #6D6D6C",
"e.	c #A1A2A1",
"f.	c #B5B6B5",
"g.	c #A4A5A4",
"h.	c #878987",
"i.	c #7A7C7A",
"j.	c #767874",
"k.	c #828480",
"l.	c #888A85",
"m.	c #92928E",
"n.	c #9E9E9A",
"o.	c #AEACA8",
"p.	c #AAA8A4",
"q.	c #A3A19D",
"r.	c #A5A19E",
"s.	c #9D9996",
"t.	c #94918E",
"u.	c #706E6D",
"v.	c #444342",
"w.	c #242424",
"x.	c #6B6B6B",
"y.	c #9C9C9C",
"z.	c #A5A6A5",
"A.	c #949794",
"B.	c #7E817E",
"C.	c #717571",
"D.	c #6E726D",
"E.	c #7C8079",
"F.	c #848781",
"G.	c #91938D",
"H.	c #9C9A96",
"I.	c #AFADA9",
"J.	c #B1AEAB",
"K.	c #B0ADA9",
"L.	c #B2AFAB",
"M.	c #A7A3A0",
"N.	c #979492",
"O.	c #6E6B69",
"P.	c #413E3E",
"Q.	c #232323",
"R.	c #6C6C6C",
"S.	c #969796",
"T.	c #939492",
"U.	c #7E827E",
"V.	c #7B7E7B",
"W.	c #7A7C79",
"X.	c #717671",
"Y.	c #797E78",
"Z.	c #828680",
"`.	c #92958E",
" +	c #A0A09B",
".+	c #B3B2AE",
"++	c #B6B4B0",
"@+	c #B8B5B2",
"#+	c #BDBAB7",
"$+	c #B0ACA9",
"%+	c #9D9A97",
"&+	c #6D6B69",
"*+	c #3A3938",
"=+	c #737272",
"-+	c #9D9D9D",
";+	c #929491",
">+	c #747975",
",+	c #737773",
"'+	c #777B76",
")+	c #70736E",
"!+	c #7E827C",
"~+	c #81857F",
"{+	c #8B8C86",
"]+	c #ACACA7",
"^+	c #B0AEAA",
"/+	c #AFADA8",
"(+	c #B4B1AE",
"_+	c #AAA6A4",
":+	c #9E9B99",
"<+	c #696865",
"[+	c #393835",
"}+	c #757574",
"|+	c #9C9D9C",
"1+	c #878B87",
"2+	c #6D736C",
"3+	c #656A64",
"4+	c #696E66",
"5+	c #6D716A",
"6+	c #7E837C",
"7+	c #868983",
"8+	c #8C8E89",
"9+	c #9A9A95",
"0+	c #ACABA7",
"a+	c #ACABA6",
"b+	c #A2A19D",
"c+	c #A5A29E",
"d+	c #999693",
"e+	c #918F8C",
"f+	c #656462",
"g+	c #363533",
"h+	c #222221",
"i+	c #737373",
"j+	c #959695",
"k+	c #767A76",
"l+	c #585F58",
"m+	c #525850",
"n+	c #5F645C",
"o+	c #696C66",
"p+	c #777A75",
"q+	c #767974",
"r+	c #797C76",
"s+	c #8A8986",
"t+	c #9E9C99",
"u+	c #959390",
"v+	c #94928E",
"w+	c #868480",
"x+	c #7B7976",
"y+	c #565452",
"z+	c #2C2B27",
"A+	c #20201F",
"B+	c #6E6F6E",
"C+	c #8C8D8C",
"D+	c #6C716C",
"E+	c #4E554E",
"F+	c #41463D",
"G+	c #4E524A",
"H+	c #5D605B",
"I+	c #6D716C",
"J+	c #6B6E69",
"K+	c #6E706C",
"L+	c #7F7F7C",
"M+	c #8E8D8A",
"N+	c #8F8E8B",
"O+	c #80807C",
"P+	c #787875",
"Q+	c #6B6967",
"R+	c #63615E",
"S+	c #403C3B",
"T+	c #22201F",
"U+	c #696A69",
"V+	c #828482",
"W+	c #696E6A",
"X+	c #586058",
"Y+	c #41463F",
"Z+	c #464B45",
"`+	c #505650",
" @	c #636A64",
".@	c #686C67",
"+@	c #6E716D",
"@@	c #7A7B76",
"#@	c #7F7E7A",
"$@	c #7D7D79",
"%@	c #6B6C67",
"&@	c #5E5F5C",
"*@	c #4B4B47",
"=@	c #484643",
"-@	c #2D2B2B",
";@	c #1D1C1C",
">@	c #666866",
",@	c #7B7D7B",
"'@	c #656B65",
")@	c #595F59",
"!@	c #4E534E",
"~@	c #515850",
"{@	c #545B51",
"]@	c #646A63",
"^@	c #6B706B",
"/@	c #6A7069",
"(@	c #6B6F67",
"_@	c #6A6D67",
":@	c #5D5F5A",
"<@	c #4A4C47",
"[@	c #464843",
"}@	c #343433",
"|@	c #2A2B28",
"1@	c #252525",
"2@	c #5F5F5F",
"3@	c #7B7B7B",
"4@	c #666A66",
"5@	c #575F57",
"6@	c #4A5349",
"7@	c #51594F",
"8@	c #555C54",
"9@	c #5B625A",
"0@	c #5E645E",
"a@	c #565C54",
"b@	c #5C605A",
"c@	c #585B56",
"d@	c #4C4E4A",
"e@	c #3D3E3A",
"f@	c #3F3E3C",
"g@	c #333432",
"h@	c #252A24",
"i@	c #222322",
"j@	c #424444",
"k@	c #535754",
"l@	c #40473F",
"m@	c #374137",
"n@	c #434941",
"o@	c #484C46",
"p@	c #3F463E",
"q@	c #363836",
"r@	c #2C2E2A",
"s@	c #323631",
"t@	c #2D2E2A",
"u@	c #292826",
"v@	c #262521",
"w@	c #2B2B27",
"x@	c #262622",
"y@	c #1E201E",
"z@	c #1D1D1D",
"A@	c #272728",
"B@	c #343134",
"C@	c #363736",
"D@	c #282E28",
"E@	c #2B302A",
"F@	c #2D2E2B",
"G@	c #252825",
"H@	c #201C20",
"I@	c #1C1B1C",
"J@	c #1E1F1E",
"K@	c #1D1D1B",
"L@	c #1C1B1B",
"M@	c #1D1C1A",
"N@	c #262422",
"O@	c #231F1E",
"P@	c #1E1E1E",
"Q@	c #212021",
"R@	c #202120",
"S@	c #201F20",
"T@	c #212020",
"U@	c #201F1F",
". + @ # $ % & * = - ; > , ' ) ! ~ { ] ] ",
"^ / ( _ : < [ } | 1 2 3 4 5 6 7 8 9 0 ] ",
"a b c d e f g h i j k l m n o p q r s ] ",
"t u v w x y z A B C D E F G H I J K L M ",
"N O P Q R S T U V W X Y Z ` H  ...+.@.] ",
"#.$.%.&.*.=.-.;.>.,.'.).!.~.{.].^./.(.] ",
"_.:.<.[.}.R |.1.2.3.4.5.6.7.8.9.0.a.b.c.",
"d.e.f.g.h.i.j.k.l.m.n.o.p.q.r.s.t.u.v.w.",
"x.y.z.A.B.C.D.E.F.G.H.I.J.K.L.M.N.O.P.Q.",
"R.S.T.U.V.W.X.Y.Z.`. +.+++@+#+$+%+&+*+0 ",
"=+-+;+>+,+'+)+!+~+{+7.]+^+/+(+_+:+<+[+0 ",
"}+|+1+2+3+4+5+6+7+8+9+0+a+b+c+d+e+f+g+h+",
"i+j+k+l+m+n+o+p+q+r+s+t+m u+v+w+x+y+z+A+",
"B+C+D+E+F+G+H+I+J+K+L+M+N+O+P+Q+R+S+T+M ",
"U+V+W+X+Y+Z+`+ @.@+@@@#@$@%@&@*@=@-@;@M ",
">@,@'@)@!@~@{@]@^@/@(@_@:@<@[@}@|@1@] M ",
"2@3@4@5@6@7@8@9@0@a@b@c@d@e@f@g@h@i@M ] ",
"j@2@k@l@m@n@o@p@q@r@s@t@u@v@w@x@y@z@M ] ",
"A@B@C@D@D@E@F@G@H@I@J@K@L@M@N@O@P@M ] ] ",
"] Q@0 R@R@R@{ ] S@M M M M M T@U@] ] ] ] "};
