/* XPM */
static char * yellow_small_xpm[] = {
"20 20 300 2",
"  	c #000000",
". 	c None",
"+ 	c #0C0800",
"@ 	c #080500",
"# 	c #111108",
"$ 	c #0D0A00",
"% 	c #0A0700",
"& 	c #0A0600",
"* 	c #170E00",
"= 	c #211600",
"- 	c #3E2B00",
"; 	c #685419",
"> 	c #AF9E4B",
", 	c #4A4422",
"' 	c #513900",
") 	c #4B3500",
"! 	c #463000",
"~ 	c #432D00",
"{ 	c #150D00",
"] 	c #161100",
"^ 	c #4C3600",
"/ 	c #4D3700",
"( 	c #9F701D",
"_ 	c #D1A73B",
": 	c #F8C746",
"< 	c #F4DC67",
"[ 	c #5A4211",
"} 	c #5A3D00",
"| 	c #5C4100",
"1 	c #523A00",
"2 	c #4A3300",
"3 	c #140D00",
"4 	c #181200",
"5 	c #5F4400",
"6 	c #BA7E1F",
"7 	c #EB9B31",
"8 	c #DB9D21",
"9 	c #F6B027",
"0 	c #F4C851",
"a 	c #C7AE48",
"b 	c #644600",
"c 	c #674900",
"d 	c #694900",
"e 	c #5B4100",
"f 	c #473000",
"g 	c #120B00",
"h 	c #020000",
"i 	c #010000",
"j 	c #302300",
"k 	c #644700",
"l 	c #745609",
"m 	c #D69B30",
"n 	c #F9AF31",
"o 	c #FBBA09",
"p 	c #EEAE00",
"q 	c #F9BB33",
"r 	c #E5B13E",
"s 	c #795706",
"t 	c #6F5000",
"u 	c #705000",
"v 	c #6D4D00",
"w 	c #443100",
"x 	c #0F0A00",
"y 	c #1C1600",
"z 	c #694A00",
"A 	c #654600",
"B 	c #BEA64C",
"C 	c #F6C953",
"D 	c #F0B92B",
"E 	c #FFC408",
"F 	c #F6B700",
"G 	c #F1AB1B",
"H 	c #FFB12C",
"I 	c #DB9628",
"J 	c #775401",
"K 	c #765500",
"L 	c #755500",
"M 	c #715200",
"N 	c #5C4000",
"O 	c #1F1500",
"P 	c #030200",
"Q 	c #392900",
"R 	c #6D4A00",
"S 	c #7F6A2E",
"T 	c #C4BC61",
"U 	c #ECCF52",
"V 	c #FCE832",
"W 	c #FFD013",
"X 	c #F8B600",
"Y 	c #DBA200",
"Z 	c #FDA72F",
"` 	c #E5962A",
" .	c #94670E",
"..	c #7D5800",
"+.	c #7B5800",
"@.	c #765600",
"#.	c #6B4D00",
"$.	c #070600",
"%.	c #694B00",
"&.	c #704B00",
"*.	c #9C8F4A",
"=.	c #D1D276",
"-.	c #EDE66C",
";.	c #FEFB63",
">.	c #FFDE34",
",.	c #F4BA14",
"'.	c #DAA60D",
").	c #D69B18",
"!.	c #FFA930",
"~.	c #B47B1E",
"{.	c #856002",
"].	c #805D00",
"^.	c #7D5900",
"/.	c #765400",
"(.	c #593F00",
"_.	c #3B2600",
":.	c #664800",
"<.	c #8D6915",
"[.	c #CCB251",
"}.	c #D0D582",
"|.	c #F2F8A0",
"1.	c #FFFF96",
"2.	c #FDEA53",
"3.	c #ECC72F",
"4.	c #D3AA22",
"5.	c #BA9010",
"6.	c #F59D27",
"7.	c #E0952F",
"8.	c #916804",
"9.	c #876100",
"0.	c #825D00",
"a.	c #7C5900",
"b.	c #684A00",
"c.	c #0E0A00",
"d.	c #513A00",
"e.	c #6D4C00",
"f.	c #936911",
"g.	c #D4A03C",
"h.	c #E3C84A",
"i.	c #F6F069",
"j.	c #F8FE9B",
"k.	c #F4FA8D",
"l.	c #DED253",
"m.	c #C6AF36",
"n.	c #A38B22",
"o.	c #B5861D",
"p.	c #E79A2F",
"q.	c #B17B24",
"r.	c #8E6400",
"s.	c #886300",
"t.	c #845F00",
"u.	c #735200",
"v.	c #100B00",
"w.	c #503800",
"x.	c #775605",
"y.	c #BC8122",
"z.	c #CE912B",
"A.	c #C5A024",
"B.	c #D2BC39",
"C.	c #DADE65",
"D.	c #DAF48F",
"E.	c #CDE789",
"F.	c #BCCA73",
"G.	c #A3A350",
"H.	c #91802C",
"I.	c #CB8E25",
"J.	c #C1862E",
"K.	c #926B06",
"L.	c #8A6300",
"M.	c #745300",
"N.	c #110C00",
"O.	c #492E00",
"P.	c #826117",
"Q.	c #CE9036",
"R.	c #B67B17",
"S.	c #AF8510",
"T.	c #B9A536",
"U.	c #C2C35A",
"V.	c #C0C966",
"W.	c #B6BE62",
"X.	c #ABC279",
"Y.	c #9BAF6F",
"Z.	c #867E33",
"`.	c #A97E20",
" +	c #BD8127",
".+	c #A47727",
"++	c #876200",
"@+	c #825E00",
"#+	c #6D4E00",
"$+	c #422900",
"%+	c #7B6423",
"&+	c #C0923E",
"*+	c #A86F07",
"=+	c #A67706",
"-+	c #A39236",
";+	c #A4A84F",
">+	c #9E9D47",
",+	c #99923B",
"'+	c #92974F",
")+	c #94B17F",
"!+	c #889256",
"~+	c #8B6D19",
"{+	c #CF972A",
"]+	c #A57A29",
"^+	c #8A640D",
"/+	c #654800",
"(+	c #3E2400",
"_+	c #7D7548",
":+	c #BDB15C",
"<+	c #956600",
"[+	c #9E6A00",
"}+	c #9F7C1F",
"|+	c #A2882A",
"1+	c #A28421",
"2+	c #A28219",
"3+	c #9A8932",
"4+	c #7B8B5D",
"5+	c #7C9977",
"6+	c #8C8B4D",
"7+	c #A37516",
"8+	c #B17D29",
"9+	c #8A651C",
"0+	c #715000",
"a+	c #5B3F00",
"b+	c #0D0900",
"c+	c #0B0600",
"d+	c #5E480D",
"e+	c #BFCA80",
"f+	c #C69A2F",
"g+	c #94690C",
"h+	c #9A6B00",
"i+	c #9E7100",
"j+	c #A17609",
"k+	c #A57A10",
"l+	c #A07E1C",
"m+	c #908733",
"n+	c #777D44",
"o+	c #727E52",
"p+	c #7E7331",
"q+	c #C1B73C",
"r+	c #977724",
"s+	c #5D3F00",
"t+	c #503600",
"u+	c #0B0700",
"v+	c #422A00",
"w+	c #402300",
"x+	c #6B6432",
"y+	c #EAC037",
"z+	c #FAAF2E",
"A+	c #FBB731",
"B+	c #FFC42F",
"C+	c #FFCF36",
"D+	c #F4CC4D",
"E+	c #E5D567",
"F+	c #DDD063",
"G+	c #C1CF8D",
"H+	c #C2CF87",
"I+	c #A19657",
"J+	c #6C530C",
"K+	c #563B00",
"L+	c #412C00",
"M+	c #120D00",
"N+	c #543D00",
"O+	c #644000",
"P+	c #452D00",
"Q+	c #896D0F",
"R+	c #A58020",
"S+	c #BA8A1B",
"T+	c #A28022",
"U+	c #AB8D2A",
"V+	c #A88E32",
"W+	c #A79135",
"X+	c #98873B",
"Y+	c #735F18",
"Z+	c #623B00",
"`+	c #5A3E00",
" @	c #483200",
".@	c #3A2600",
"+@	c #090500",
"@@	c #170F00",
"#@	c #604500",
"$@	c #694700",
"%@	c #604300",
"&@	c #714D00",
"*@	c #765000",
"=@	c #754E00",
"-@	c #724A00",
";@	c #684700",
">@	c #493500",
",@	c #412D00",
"'@	c #040300",
")@	c #312000",
"!@	c #543C00",
"~@	c #634600",
"{@	c #704F00",
"]@	c #755400",
"^@	c #6B4B00",
"/@	c #312100",
"(@	c #302100",
"_@	c #402C00",
". . . . . . . + @ # . $ % & & . . . . . ",
". . . . . * = - ; > , ' ) ! ~ { . . . . ",
". . . . ] ^ / ( _ : < [ } | 1 2 3 . . . ",
". . . 4 / 5 6 7 8 9 0 a b c d e f g . . ",
". . . j k l m n o p q r s t u v 5 w x . ",
". . y z A B C D E F G H I J K L M N O . ",
". P Q R S T U V W X Y Z `  ...+.@.#.) % ",
". $.%.&.*.=.-.;.>.,.'.).!.~.{.].^./.(.+ ",
". _.:.<.[.}.|.1.2.3.4.5.6.7.8.9.0.a.b.c.",
". d.e.f.g.h.i.j.k.l.m.n.o.p.q.r.s.t.u.v.",
". w.x.y.z.A.B.C.D.E.F.G.H.I.J.K.L.t.M.N.",
". O.P.Q.R.S.T.U.V.W.X.Y.Z.`. +.+++@+#+v.",
". $+%+&+*+=+-+;+>+,+'+)+!+~+{+]+^+a./+x ",
". (+_+:+<+[+}+|+1+2+3+4+5+6+7+8+9+0+a+b+",
". c+d+e+f+g+h+i+j+k+l+m+n+o+p+q+r+s+t+u+",
". @ v+w+x+y+z+A+B+C+D+E+F+G+H+I+J+K+L+@ ",
". . M+N+O+P+Q+R+S+T+U+V+W+X+Y+Z+`+ @.@+@",
". . @@ @/ #@$@0+z %@&@*@=@-@;@(.>@,@_.+@",
". . P '@)@f !@~@{@0+u ]@^@5 ' ~ /@P +@. ",
". . . . . . . . . (@_@. . . . . . . . . "};
